<svg width="416" height="312" viewBox="0 0 416 312" fill="none" xmlns="http://www.w3.org/2000/svg">
<g clip-path="url(#clip0)">
<path d="M141.123 311.469C160.877 311.469 176.892 309.973 176.892 308.128C176.892 306.283 160.877 304.787 141.123 304.787C121.368 304.787 105.354 306.283 105.354 308.128C105.354 309.973 121.368 311.469 141.123 311.469Z" fill="#C8DBFB"/>
<path d="M324.872 311.469C344.626 311.469 360.641 309.973 360.641 308.128C360.641 306.283 344.626 304.787 324.872 304.787C305.117 304.787 289.103 306.283 289.103 308.128C289.103 309.973 305.117 311.469 324.872 311.469Z" fill="#C8DBFB"/>
<path d="M400.445 72.8323C400.343 72.2122 400.232 71.6013 400.111 71.009" stroke="#C8DBFB" stroke-width="0.591988" stroke-linecap="round" stroke-linejoin="round"/>
<path d="M399.232 67.4178C392.856 45.6857 372.505 47.7867 354.116 47.8237C334.321 47.8607 27.8841 48.4994 27.8841 48.4994C-2.91501 48.5642 0.0742093 93.0281 24.1823 92.9725C38.0456 92.9448 43.3207 118.981 19.3514 119.027C4.96987 119.055 4.50714 137.288 14.1781 140.944" stroke="#C8DBFB" stroke-width="0.591988" stroke-linecap="round" stroke-linejoin="round" stroke-dasharray="2.36 2.36"/>
<path d="M15.9551 141.416C16.5381 141.518 17.1582 141.574 17.806 141.564" stroke="#C8DBFB" stroke-width="0.591988" stroke-linecap="round" stroke-linejoin="round"/>
<path d="M21.5817 140.731C21.9889 143.147 20.3693 145.433 17.9539 145.85C15.5384 146.257 13.2526 144.637 12.8361 142.222C12.4289 139.806 14.0485 137.52 16.4639 137.103C18.8793 136.696 21.1745 138.316 21.5817 140.731Z" fill="#5851BC"/>
<path d="M404.804 74.8223C404.369 77.2287 402.055 78.83 399.649 78.3857C397.243 77.9507 395.642 75.6368 396.086 73.2303C396.53 70.8239 398.834 69.2227 401.241 69.6669C403.647 70.1112 405.239 72.4158 404.804 74.8223Z" fill="#5851BC"/>
<path d="M66.7622 108.355C66.1237 111.956 65.189 115.473 64.0507 118.944C61.5982 126.432 58.211 133.642 54.7868 140.759C53.0007 144.48 45.7544 153.088 41.8675 154.726C42.321 145.017 42.358 133.679 41.2289 123.877C40.1461 114.436 43.5426 107.282 39.8407 98.5259C39.3688 97.406 38.8783 96.286 38.3878 95.1661C36.5461 91.0011 34.723 86.8176 34.1492 82.3286C33.4088 76.6364 35.1765 70.1482 40.0999 67.1864C43.6444 65.0576 48.2624 65.1687 52.0475 66.844C55.8326 68.5192 58.8681 71.5828 61.1725 75.0167C67.6229 84.6055 68.789 96.9895 66.7622 108.355Z" fill="#5851BC"/>
<path d="M49.5396 76.9048C56.786 87.1415 57.4153 99.0627 58.0446 111.586C58.6739 124.108 55.6662 136.798 49.4749 147.701" stroke="#0B43A4" stroke-width="0.591988" stroke-miterlimit="10" stroke-linecap="round" stroke-linejoin="round"/>
<path d="M49.2435 265.701C44.1628 261.212 39.0265 256.658 35.2691 251.012C32.0023 246.097 29.8922 240.516 27.0418 235.342C25.2002 232.001 23.0161 228.771 21.9518 225.105C20.8783 221.44 21.1374 217.09 23.7472 214.304C26.4681 211.389 31.1416 210.944 34.8342 212.444C38.5267 213.943 41.3494 217.053 43.4964 220.404C46.3561 224.856 48.2718 229.918 49.0677 235.148C49.7895 239.887 49.6044 244.737 50.3448 249.475C51.0296 253.89 52.5196 258.129 54.389 262.174C56.0826 265.839 60.386 272.383 61.478 276.141C58.4333 277.659 51.4091 267.616 49.2435 265.701Z" fill="#FCA70C"/>
<path d="M31.4839 219.154C36.3148 221.264 38.2305 227.031 39.2392 232.205C40.3868 238.091 40.1276 244.468 42.83 249.827C47.92 259.925 54.537 271.411 59.4604 274.845" stroke="#00AD9F" stroke-width="0.591988" stroke-miterlimit="10" stroke-linecap="round" stroke-linejoin="round"/>
<path d="M24.2472 251.891C20.0364 250.225 14.4004 249.54 11.698 253.178C9.43993 256.223 10.606 260.545 12.17 263.998C13.4934 266.913 15.1685 269.884 17.9449 271.467C19.842 272.55 22.0724 272.874 24.2472 273.133C30.3089 273.855 36.4077 274.206 42.5157 274.188C49.5862 274.169 58.1559 277.057 64.014 281.472C56.4993 267.524 38.4344 257.5 24.2472 251.891Z" fill="#5851BC"/>
<path d="M16.853 260.971C22.2207 261.202 27.6346 261.573 32.7801 263.1C38.046 264.655 58.3042 273.957 61.4692 277.909" stroke="#0B43A4" stroke-width="0.591988" stroke-miterlimit="10" stroke-linecap="round" stroke-linejoin="round"/>
<path d="M70.2237 223.245C64.7358 214.656 55.3517 208.658 45.2549 207.298C37.7958 206.298 30.1237 207.686 22.7571 206.141C15.0203 204.521 8.04238 199.532 4.00739 192.729C-0.0275912 185.927 -1.08261 177.43 1.18476 169.85C2.91536 164.093 6.86705 158.632 12.5864 156.79C15.7051 155.79 19.1108 155.929 22.2944 156.688C25.2373 157.392 27.9674 158.623 30.4847 160.224C36.241 163.87 40.896 169.479 44.3943 175.44C47.5686 180.854 55.3979 189.286 60.7285 194.775C63.8566 197.977 66.1239 200.171 66.1239 200.171C69.7702 204.715 68.0581 217.831 70.2237 223.245Z" fill="#EAE6FF"/>
<path d="M10.9111 173.441C28.8372 181.53 48.3828 192.137 61.0986 207.15" stroke="#00AD9F" stroke-width="0.591988" stroke-miterlimit="10" stroke-linecap="round" stroke-linejoin="round"/>
<path opacity="0.2" d="M62.82 205.132C62.82 205.132 36.1114 183.474 30.4753 160.233C36.2317 163.88 40.8867 169.489 44.3849 175.449C47.5592 180.864 55.3886 189.296 60.7192 194.784C61.3485 197.69 62.0426 201.096 62.82 205.132Z" fill="#5275A0"/>
<path opacity="0.2" d="M64.0508 118.944C61.5984 126.432 58.2112 133.642 54.787 140.759C53.0009 144.48 45.7546 153.088 41.8677 154.726C42.3211 145.017 42.3581 133.679 41.2291 123.877C40.1463 114.436 43.5427 107.282 39.8409 98.5259C39.3689 97.406 38.8784 96.286 38.3879 95.1661C38.7304 95.2772 39.0635 95.3975 39.3874 95.5363C45.4769 98.1464 48.2903 104.588 48.8086 110.845C49.2435 116.01 48.3088 121.184 47.6147 126.32C47.2908 128.69 47.0317 131.115 47.5407 133.438C47.5499 133.466 47.5592 133.484 47.5592 133.512C48.1978 136.279 52.242 136.122 52.7603 133.318L54.3798 124.719C54.861 122.146 55.3886 119.453 57.4986 117.657C58.3315 116.945 59.405 116.5 60.4971 116.537C62.2369 116.602 63.329 117.62 64.0508 118.944Z" fill="#5275A0"/>
<path d="M62.82 199.699C58.5999 177.661 56.3788 174.264 58.239 168.739C60.6081 161.695 59.2755 154.624 61.5058 147.534C63.7362 140.454 65.2539 132.836 63.4585 125.626C62.894 123.349 61.7372 120.869 58.9979 120.767C57.8966 120.73 56.8323 121.174 55.9994 121.887C53.8893 123.683 53.3618 126.376 52.8806 128.949L51.2703 137.548C50.7428 140.343 46.7078 140.509 46.0692 137.733C46.06 137.705 46.06 137.686 46.0507 137.659C45.5325 135.335 45.8009 132.91 46.1155 130.541C46.8096 125.395 47.7443 120.23 47.3186 115.056C46.8004 108.8 43.987 102.358 37.8882 99.7569C35.7319 98.8314 33.2887 98.6277 31.0121 99.2108C24.6542 100.84 23.0069 107.06 23.9416 112.363C24.5987 116.102 26.3478 119.536 27.9303 122.979C31.7987 131.393 28.9576 139.112 29.4943 148.358C30.9751 173.894 62.82 199.699 62.82 199.699Z" fill="#EAE6FF"/>
<path d="M34.4456 105.903C37.5828 121.582 40.7572 137.372 46.8467 152.162C48.6328 156.503 49.5027 162.204 59.84 173.996" stroke="#00AD9F" stroke-width="0.591988" stroke-miterlimit="10" stroke-linecap="round" stroke-linejoin="round"/>
<path d="M156.837 109.92C153.589 106.208 150.59 102.432 147.434 98.7943C145.389 96.4341 143.279 94.1295 140.984 91.9452C139.846 90.853 138.67 89.7979 137.43 88.7705C130.101 82.7173 121.92 77.6915 113.174 73.9523C107.899 71.6939 102.328 69.8335 97.8485 66.2331C93.3693 62.6419 90.1488 56.7369 91.6387 51.1928C92.7215 47.1943 96.1179 44.0845 100.014 42.6591C103.901 41.243 108.214 41.3541 112.258 42.2241C123.548 44.6583 132.979 52.7755 139.392 62.3735C139.503 62.5401 139.624 62.716 139.735 62.8918C144.436 70.0649 147.721 78.0433 150.581 86.1697C151.497 88.7798 152.367 91.4083 153.228 94.0277C154.523 97.9428 158.503 106.041 156.837 109.92Z" fill="#5851BC"/>
<path d="M105.188 51.6463C117.505 53.9972 126.223 62.1514 135.357 70.7406C144.492 79.3298 151.118 90.5568 154.218 102.709" stroke="#0B43A4" stroke-width="0.591988" stroke-miterlimit="10" stroke-linecap="round" stroke-linejoin="round"/>
<path opacity="0.2" d="M147.435 98.7943C147.333 100.072 147.37 101.349 147.61 102.645C144.529 101.941 142.391 97.1561 140.984 91.9452C139.605 86.8824 138.92 81.403 138.708 78.8763C138.291 73.545 138.634 68.1398 139.735 62.8918C144.436 70.0649 147.721 78.0433 150.581 86.1697C149.6 89.0852 148.758 92.0377 148.064 95.018C147.768 96.286 147.536 97.5355 147.435 98.7943Z" fill="#5275A0"/>
<path d="M168.803 54.3212C167.758 58.9397 164.972 62.9289 162.51 66.9828C161.215 69.1116 160.002 71.3052 158.873 73.5265C155.255 80.6348 152.497 88.1781 150.674 95.9436C150.072 98.4889 149.739 100.988 150.22 103.57C144.149 102.182 141.725 84.9202 141.317 79.7926C140.586 70.5555 142.159 61.087 145.963 52.6274C147.62 48.9159 149.767 45.2692 153.071 42.8905C156.365 40.5118 161.03 39.6788 164.518 41.7521C166.619 43.0016 167.97 45.0748 168.628 47.435C169.275 49.6286 169.303 52.0906 168.803 54.3212Z" fill="#EAE6FF"/>
<path d="M147.907 98.4796C144.131 88.9926 146.426 68.9172 152.478 56.3019C154.301 52.4978 156.902 48.9344 160.539 46.8149" stroke="#00AD9F" stroke-width="0.591988" stroke-miterlimit="10" stroke-linecap="round" stroke-linejoin="round"/>
<path opacity="0.2" d="M168.803 54.3212C167.757 58.9397 164.972 62.9289 162.51 66.9828C161.214 69.1116 160.002 71.3052 158.873 73.5265C157.217 70.7313 156.078 67.6492 155.764 64.4283C155.255 59.0508 157.309 53.2938 161.677 50.1284C163.722 48.6567 166.119 47.8145 168.627 47.435C169.275 49.6286 169.303 52.0906 168.803 54.3212Z" fill="#5275A0"/>
<path d="M203.832 94.4905C203.545 96.2583 203.017 97.9613 202.258 99.5996C199.565 105.431 193.911 110.429 185.443 114.501C185.443 114.501 184.971 105.282 184.869 102.811C184.453 92.2414 172.986 86.4011 165.731 78.6912C162.038 74.7575 159.234 69.7965 158.716 64.419C158.207 59.0415 160.261 53.2845 164.629 50.1191C168.294 47.472 173.088 46.8982 177.604 47.2406C184.878 47.8237 192.217 50.8688 196.743 56.5518C196.937 56.7646 197.104 56.996 197.27 57.2182C200.037 61.0037 201.462 65.613 202.508 70.2038C204.322 78.1543 205.137 86.4288 203.832 94.4905Z" fill="#FCA70C"/>
<path d="M167.757 55.7928C175.698 59.9023 183.647 64.8633 188.265 72.5084C194.716 83.1801 193.309 97.0635 188.339 108.494" stroke="#00AD9F" stroke-width="0.591988" stroke-miterlimit="10" stroke-linecap="round" stroke-linejoin="round"/>
<path d="M336.634 162.658C341.697 154.328 339.105 143.61 340.873 134.03C342.224 126.663 346.324 119.832 352.191 115.167C355.875 112.243 361.048 110.151 365.203 112.345C366.101 112.817 367.175 113.492 368.044 112.955C368.563 112.641 368.766 111.993 368.896 111.4C369.951 106.227 367.461 100.571 369.497 95.6937C370.589 93.0651 372.857 91.1029 375.254 89.5757C379.881 86.6232 385.295 84.9294 390.774 84.7073C392.227 84.6518 393.744 84.7073 395.049 85.3552C397.4 86.5306 398.473 89.4647 398.159 92.0747C397.844 94.6848 396.4 97.0265 394.809 99.1183C389.496 106.069 381.713 112.067 380.686 120.749C380.557 121.841 380.557 123.007 381.056 123.988C381.547 124.941 382.454 125.617 382.963 126.552C384.601 129.56 381.436 132.975 378.354 134.447C375.531 135.798 372.477 136.64 369.359 136.937C367.212 137.14 364.796 137.187 363.334 138.769C360.641 141.694 363.732 146.368 363.167 150.302C362.816 152.754 361.039 154.735 359.243 156.457C355.921 159.65 352.293 162.51 348.416 165C345.269 167.017 341.947 168.794 339.161 171.275C336.375 173.755 334.126 177.115 333.941 180.845" fill="#EAE6FF"/>
<path d="M343.298 154.559C344.122 150.524 346 146.785 347.86 143.11C350.766 137.362 353.728 131.531 358.114 126.82C361.446 123.238 365.509 120.406 368.896 116.88C371.311 114.362 373.366 111.512 374.985 108.42C375.865 106.745 376.623 104.986 377.799 103.515C379.206 101.765 381.121 100.516 382.796 99.0165C385.054 96.9987 386.868 94.4905 388.09 91.7138" stroke="#00AD9F" stroke-width="0.591988" stroke-miterlimit="10" stroke-linecap="round" stroke-linejoin="round"/>
<path d="M409.292 168.443C408.154 172.83 406.46 177.171 403.554 180.651C401.546 183.048 399.047 184.945 396.317 186.491C394.91 187.296 393.43 188 391.94 188.629C386.146 191.063 379.918 192.442 373.643 192.683C364.5 193.026 355.097 191.008 346.324 193.618C342.298 194.812 338.587 196.987 335.542 199.865C333.636 201.652 331.998 203.716 330.702 205.983L331.896 198.394C334.108 190.23 336.366 181.919 340.882 174.764C343.797 170.127 347.582 166.092 351.608 162.38C358.04 156.438 365.175 151.209 373.051 147.386C379.418 144.295 386.489 142.12 393.522 142.981C400.546 143.832 407.45 148.275 409.644 155.004C411.05 159.326 410.439 164.046 409.292 168.443Z" fill="#5851BC"/>
<path d="M337.875 192.618C344.593 182.678 354.653 175.033 366.036 171.238C373.125 168.868 380.631 167.971 387.812 165.897C394.994 163.824 402.166 160.307 406.377 154.124" stroke="#0B43A4" stroke-width="0.591988" stroke-miterlimit="10" stroke-linecap="round" stroke-linejoin="round"/>
<path d="M342.298 265.525C342.696 255.316 347.971 245.894 354.385 237.934C359.725 231.297 366.175 225.226 374.143 222.199C376.642 221.255 379.381 220.616 381.973 221.255C384.564 221.894 386.915 224.106 386.961 226.781C386.998 229.03 385.489 231.001 383.898 232.593C378.66 237.841 371.894 241.201 365.546 245.033C354.644 251.623 344.279 260.416 339.957 272.402" fill="#EAE6FF"/>
<path d="M346.333 256.593C352.997 241.729 370.247 228.437 381.621 226.781" stroke="#00AD9F" stroke-width="0.591988" stroke-miterlimit="10" stroke-linecap="round" stroke-linejoin="round"/>
<path d="M338.134 273.642C338.041 271.93 343.622 267.459 344.881 266.321C351.849 259.999 360.123 255.353 368.868 252.613C372.404 251.502 376.17 250.697 379.705 251.549C383.25 252.4 386.498 255.307 386.841 259.12C387.174 262.822 384.694 266.45 381.519 268.237C378.345 270.032 374.643 270.301 371.108 270.097C365.648 269.782 360.28 268.422 354.801 268.459C349.323 268.496 341.614 269.051 338.134 273.642Z" fill="#FCA70C"/>
<path d="M343.816 268.44C355.024 262.368 371.969 258.416 384.277 259.906" stroke="#00AD9F" stroke-width="0.591988" stroke-miterlimit="10" stroke-linecap="round" stroke-linejoin="round"/>
<path opacity="0.2" d="M203.832 94.4905C203.545 96.2583 203.017 97.9613 202.259 99.5996C198.325 91.2603 194.864 80.3757 194.031 67.0106C193.809 63.3917 194.818 59.6709 196.743 56.5518C196.937 56.7647 197.104 56.996 197.27 57.2182C200.037 61.0037 201.463 65.613 202.508 70.2038C204.322 78.1543 205.137 86.4288 203.832 94.4905Z" fill="#5275A0"/>
<path d="M242.6 94.0277C250.966 91.0566 259.665 88.6872 267.272 84.0964C269.577 82.7081 271.788 81.0976 273.427 78.9688C275.055 76.84 276.064 74.1189 275.703 71.4533C275.333 68.7507 273.602 66.1591 274.185 63.4842C274.574 61.7257 275.888 60.3558 276.897 58.8564C279.294 55.3115 280.006 50.6745 278.794 46.565C277.48 42.1593 274.176 38.6237 272.297 34.4309C270.761 30.9971 270.215 27.1375 270.733 23.4167C263.709 23.5093 257.305 27.3504 250.401 28.6276C245.117 29.6087 239.629 29.0719 234.391 30.2751C224.849 32.4687 217.039 40.8728 215.558 50.5541C211.134 49.7952 206.368 51.3872 203.286 54.6636C200.019 58.1437 198.178 63.0955 198.474 67.8621C200.63 102.506 220.463 120.573 220.463 120.573C220.463 120.573 239.407 95.1569 242.6 94.0277Z" fill="#EAE6FF"/>
<path d="M223.877 93.7778C223.007 85.2349 225.996 76.7845 229.42 68.908C232.761 61.2351 236.611 53.7103 241.775 47.1203C246.939 40.5303 253.501 34.8844 261.247 31.7005" stroke="#00AD9F" stroke-width="0.591988" stroke-miterlimit="10" stroke-linecap="round" stroke-linejoin="round"/>
<path d="M231.327 36.9484C230.448 44.5658 231.068 53.7473 233.048 61.1518" stroke="#00AD9F" stroke-width="0.591988" stroke-miterlimit="10" stroke-linecap="round" stroke-linejoin="round"/>
<path d="M234.474 58.4307C243.173 52.8495 256.555 49.462 266.874 50.0544" stroke="#00AD9F" stroke-width="0.591988" stroke-miterlimit="10" stroke-linecap="round" stroke-linejoin="round"/>
<path d="M213.197 59.856C223.673 64.271 224.099 79.6723 224.386 84.0502" stroke="#00AD9F" stroke-width="0.591988" stroke-miterlimit="10" stroke-linecap="round" stroke-linejoin="round"/>
<path d="M227.236 74.2577C235.251 68.51 246.828 66.7792 255.352 68.9265" stroke="#00AD9F" stroke-width="0.591988" stroke-miterlimit="10" stroke-linecap="round" stroke-linejoin="round"/>
<path d="M249.105 32.9963C246.699 35.9673 246.097 39.503 246.338 41.9557" stroke="#00AD9F" stroke-width="0.591988" stroke-miterlimit="10" stroke-linecap="round" stroke-linejoin="round"/>
<path d="M248.615 39.7806C252.307 37.8925 257.249 37.4575 262.534 38.781" stroke="#00AD9F" stroke-width="0.591988" stroke-miterlimit="10" stroke-linecap="round" stroke-linejoin="round"/>
<path d="M42.5527 56.5333C43.5337 56.4777 50.2525 51.5075 52.8345 49.8322C53.5656 49.3602 54.2967 48.8696 54.8057 48.1662C55.3147 47.4628 55.5553 46.5002 55.1852 45.7135C54.7224 44.7416 53.9636 43.7698 52.0479 43.7698C48.707 43.779 47.5409 44.8805 45.9121 46.5557C40.5352 52.1276 42.5527 56.5333 42.5527 56.5333Z" fill="#5851BC"/>
<path d="M72.6576 76.5901C75.5821 77.9044 78.7009 79.2095 81.8844 78.8022C83.1153 78.6449 84.4665 78.0803 84.8737 76.9141C85.2253 75.9145 84.7441 74.7575 83.9482 74.0541C83.1523 73.3507 82.1065 73.0082 81.07 72.7583C77.1831 71.805 71.7137 72.3326 67.8638 73.4247C67.8545 73.434 70.9085 75.8127 72.6576 76.5901Z" fill="#5851BC"/>
<path d="M91.9071 33.4128C90.6022 32.589 89.1585 31.4876 89.1678 29.9419C89.1678 28.3962 90.7781 27.2208 92.3236 27.2115C93.8691 27.2023 95.3035 28.0445 96.4696 29.0719C101.384 33.3943 100.773 38.3182 100.773 38.3182C100.773 38.3182 93.3601 34.3291 91.9071 33.4128Z" fill="#5851BC"/>
<path d="M95.7848 20.2421C94.6372 19.7515 93.4619 19.1591 92.7863 18.104C92.4624 17.5949 92.2773 16.9471 92.4716 16.3732C92.8048 15.4199 93.4063 14.5591 95.8218 14.9941C103.457 16.3825 105.123 21.6119 105.123 21.6119C105.123 21.6119 97.8115 21.1121 95.7848 20.2421Z" fill="#5851BC"/>
<path d="M118.153 31.8023C121.216 31.5339 124.381 30.016 126.306 27.6188C127.037 26.7117 127.704 25.7214 127.944 24.5829C128.185 23.4445 127.926 22.1487 127.047 21.3897C125.973 20.4642 124.27 20.6123 123.095 21.3897C121.91 22.1672 121.152 23.4445 120.541 24.7125C119.726 26.4248 118.153 31.8023 118.153 31.8023Z" fill="#5851BC"/>
<path d="M63.468 143.49C56.0551 136.955 48.633 130.411 41.2201 123.877C37.2684 120.397 33.2334 116.806 30.7347 112.169C25.3578 102.2 28.458 89.2518 35.7229 80.5608C42.9877 71.8698 53.6304 66.7422 64.3287 63.0122C75.0177 59.2822 86.1509 56.6628 96.3402 51.7203C102.735 48.6197 109.158 44.0104 110.916 37.1243C111.971 32.987 111.083 28.387 108.565 24.9439C106.048 21.4916 101.939 19.2517 97.6728 19.0018" stroke="#0B43A4" stroke-width="0.591988" stroke-miterlimit="10" stroke-linecap="round" stroke-linejoin="round"/>
<path d="M123.336 24.694C121.309 30.9138 113.415 34.6993 109.815 40.0953" stroke="#0B43A4" stroke-width="0.591988" stroke-miterlimit="10" stroke-linecap="round" stroke-linejoin="round"/>
<path d="M94.9983 31.8578C96.5531 33.4961 98.4132 34.8566 99.7736 36.6615C102.643 40.4841 102.874 46.6946 98.6353 50.5449" stroke="#0B43A4" stroke-width="0.591988" stroke-miterlimit="10" stroke-linecap="round" stroke-linejoin="round"/>
<path d="M55.0649 66.6866C61.6079 71.7309 70.2054 75.0907 78.4605 75.4054" stroke="#0B43A4" stroke-width="0.591988" stroke-miterlimit="10" stroke-linecap="round" stroke-linejoin="round"/>
<path d="M40.0908 75.8682C37.0738 66.9828 40.3592 56.3389 47.8554 50.7022" stroke="#0B43A4" stroke-width="0.591988" stroke-miterlimit="10" stroke-linecap="round" stroke-linejoin="round"/>
<path d="M279.237 38.3367C278.886 37.2353 278.904 35.884 279.709 35.0603C280.357 34.4124 281.431 34.1162 282.273 34.4864C288.779 37.3464 288.075 47.4998 288.075 47.4998C288.075 47.4998 281.912 46.6112 279.237 38.3367Z" fill="#5851BC"/>
<path d="M279.08 57.3477C274.87 64.9558 289.825 64.3727 295.22 59.893C295.22 59.893 282.708 50.804 279.08 57.3477Z" fill="#5851BC"/>
<path d="M297.996 38.9106C296.978 37.5222 296.617 35.449 297.728 34.1254C298.552 33.1443 299.986 32.8389 301.245 33.0796C302.503 33.3202 304.391 34.4864 305.196 35.486C310.12 41.6132 307.806 47.6016 307.806 47.6016C307.806 47.6016 299.653 41.1967 297.996 38.9106Z" fill="#5851BC"/>
<path d="M357.392 57.7457C357.031 56.561 357.115 55.1171 358.031 54.2841C358.614 53.7566 359.438 53.5715 360.215 53.627C360.992 53.6825 361.742 53.9694 362.455 54.2934C363.982 54.9876 365.166 56.2093 365.897 57.718C367.748 61.5313 366.49 66.2424 366.49 66.2424C366.49 66.2424 358.299 60.6983 357.392 57.7457Z" fill="#5851BC"/>
<path d="M338.707 71.7032C336.061 69.38 332.016 68.6951 328.787 70.1112C327.963 70.4722 327.185 70.9812 326.667 71.7032C325.483 73.3414 325.899 75.7293 327.13 77.3306C328.352 78.9318 330.212 79.9036 332.053 80.7366C335.385 82.2453 340.549 82.5507 344.094 83.4578C344.084 83.4485 344.075 76.4142 338.707 71.7032Z" fill="#5851BC"/>
<path d="M283.902 39.9657C286.104 47.1666 292.333 52.6089 299.264 55.5429C306.196 58.4862 313.831 59.2636 321.355 59.7449C328.87 60.2355 336.477 60.4761 343.742 62.4476C350.822 64.3727 357.883 68.3712 360.918 75.0537C364.62 83.1894 361.344 92.9077 356.143 100.183C350.951 107.448 343.955 113.307 338.929 120.693C336.625 124.081 334.691 128.061 335.163 132.133C335.783 137.566 340.364 141.564 344.612 145.008" stroke="#0B43A4" stroke-width="0.591988" stroke-miterlimit="10" stroke-linecap="round" stroke-linejoin="round"/>
<path d="M301.227 37.3279C306.206 42.835 310.185 51.4519 311.157 58.8194" stroke="#0B43A4" stroke-width="0.591988" stroke-miterlimit="10" stroke-linecap="round" stroke-linejoin="round"/>
<path d="M284.476 58.6065C287.326 59.3654 290.213 60.1244 293.156 60.1337C296.099 60.1429 299.514 58.5047 301.634 56.4592" stroke="#0B43A4" stroke-width="0.591988" stroke-miterlimit="10" stroke-linecap="round" stroke-linejoin="round"/>
<path d="M362.27 58.1992C364.935 60.7723 366.564 64.4098 366.702 68.112C366.841 71.8235 364.787 76.3125 362.316 79.0799" stroke="#0B43A4" stroke-width="0.591988" stroke-miterlimit="10" stroke-linecap="round" stroke-linejoin="round"/>
<path d="M334.349 75.0167C339.679 79.9221 344.316 83.8928 350.239 88.0578C352.941 89.9645 358.309 92.3987 360.696 91.7693" stroke="#0B43A4" stroke-width="0.591988" stroke-miterlimit="10" stroke-linecap="round" stroke-linejoin="round"/>
<path opacity="0.2" d="M396.317 186.491C394.91 187.296 393.429 188 391.939 188.629C386.146 191.063 379.918 192.442 373.643 192.683C364.499 193.026 355.097 191.008 346.323 193.618C342.298 194.812 338.587 196.987 335.542 199.865C335.237 200.014 334.931 200.18 334.626 200.356C333.895 194.164 349.331 186.093 354.023 183.992C362.491 180.197 371.931 178.513 381.185 179.253C385.239 179.577 389.394 180.373 392.735 182.678C394.17 183.668 395.428 184.992 396.317 186.491Z" fill="#5275A0"/>
<path d="M381.177 182.956C385.23 183.279 389.385 184.075 392.726 186.38C396.067 188.685 398.427 192.803 397.65 196.793C396.743 201.439 391.94 204.466 387.238 205.03C382.537 205.604 377.845 204.308 373.208 203.355C362.945 201.245 352.358 200.754 341.946 201.929C339.346 202.216 336.884 202.735 334.617 204.068C333.886 197.876 349.332 189.805 354.024 187.704C362.492 183.9 371.931 182.215 381.177 182.956Z" fill="#EAE6FF"/>
<path d="M338.633 200.152C346.296 193.414 365.98 188.842 379.899 190.314C384.092 190.758 388.321 192.008 391.542 194.729" stroke="#00AD9F" stroke-width="0.591988" stroke-miterlimit="10" stroke-linecap="round" stroke-linejoin="round"/>
<path d="M324.317 124.442L399.177 124.284C407.96 124.266 415.095 131.374 415.113 140.158C415.132 148.941 408.024 156.077 399.242 156.096L348.036 156.198" stroke="#0B43A4" stroke-width="0.591988" stroke-miterlimit="10" stroke-linecap="round" stroke-linejoin="round" stroke-dasharray="2.37 2.37"/>
<path d="M97.821 179.411L45.4679 179.522C40.5075 179.531 36.5003 183.557 36.5095 188.518C36.5188 193.479 40.5445 197.487 45.505 197.478L60.7657 197.45" stroke="#0B43A4" stroke-width="0.591988" stroke-miterlimit="10" stroke-linecap="round" stroke-linejoin="round" stroke-dasharray="2.37 2.37"/>
<path d="M14.2615 219.959C-3.67385 219.996 -4.04403 246.754 18.7684 246.699C41.5902 246.652 340.947 246.032 355.06 246.005C369.174 245.977 370.664 223.949 353.219 223.986C318.486 224.06 317.339 207.492 336.616 207.455" stroke="#C8DBFB" stroke-width="0.591988" stroke-miterlimit="10" stroke-linecap="round" stroke-linejoin="round" stroke-dasharray="2.37 2.37"/>
<path d="M18.454 219.21C18.8612 221.625 17.2416 223.911 14.8262 224.328C12.4108 224.735 10.1249 223.116 9.70842 220.7C9.30122 218.284 10.9208 215.998 13.3362 215.581C15.7516 215.174 18.0468 216.803 18.454 219.21Z" fill="#5851BC"/>
<path d="M345.223 207.575C345.63 209.991 344.01 212.277 341.595 212.694C339.18 213.101 336.894 211.481 336.477 209.065C336.07 206.65 337.69 204.364 340.105 203.947C342.52 203.54 344.806 205.16 345.223 207.575Z" fill="#5851BC"/>
<path opacity="0.2" d="M350.044 284.924L71.5841 285.498C67.873 285.508 64.8467 282.499 64.8467 278.788L64.4673 94.2961C64.4581 90.5846 67.4658 87.558 71.1769 87.558L349.637 86.9841C353.348 86.9749 356.374 89.983 356.374 93.6944L356.754 278.186C356.763 281.898 353.765 284.915 350.044 284.924Z" fill="#5275A0"/>
<path d="M344.593 281.398L66.1331 281.971C62.4221 281.981 59.3958 278.973 59.3958 275.261L59.0164 90.7693C59.0071 87.0578 62.0148 84.0312 65.7259 84.0312L344.186 83.4574C347.897 83.4481 350.923 86.4562 350.923 90.1677L351.303 274.66C351.312 278.371 348.304 281.388 344.593 281.398Z" fill="white"/>
<path d="M343.733 83.4485L66.4664 84.0224C62.4221 84.0316 59.1553 87.3174 59.1553 91.3621L59.1645 97.7299L351.081 97.1283L351.072 90.7604C351.062 86.7157 347.777 83.4485 343.733 83.4485Z" fill="#5851BC"/>
<path d="M66.7994 281.972L108.695 281.889L108.315 97.6281L59.0996 97.7299L59.4605 274.678C59.4698 278.714 62.7552 281.981 66.7994 281.972Z" fill="#BCBEC0"/>
<path d="M344.27 85.2996C346.954 85.2996 349.138 87.4839 349.147 90.1681L349.526 274.66C349.526 275.965 349.027 277.187 348.101 278.112C347.185 279.038 345.954 279.547 344.659 279.547L66.1891 280.121C63.5052 280.121 61.3212 277.936 61.3119 275.252L60.9325 90.7604C60.9325 89.4554 61.4322 88.2336 62.3577 87.3081C63.2739 86.3825 64.4955 85.8735 65.8004 85.8735L344.251 85.2996H344.27ZM344.27 83.4485C344.27 83.4485 344.261 83.4485 344.251 83.4485L65.7911 84.0224C62.08 84.0316 59.0723 87.0489 59.0816 90.7604L59.461 275.252C59.4703 278.964 62.478 281.963 66.1891 281.963C66.1891 281.963 66.1983 281.963 66.2076 281.963L344.668 281.389C348.379 281.38 351.387 278.362 351.377 274.651L350.998 90.1588C350.989 86.4566 347.981 83.4485 344.27 83.4485Z" fill="#0056EC"/>
<path d="M101.625 267.894L69.3354 267.959C67.9102 267.959 66.7534 266.811 66.7534 265.386V265.062C66.7534 263.637 67.901 262.48 69.3262 262.48L101.615 262.415C103.041 262.415 104.197 263.562 104.197 264.988V265.312C104.207 266.728 103.05 267.885 101.625 267.894Z" fill="white"/>
<path d="M97.7467 142.888L70.2607 142.944C67.6509 142.953 65.5316 140.833 65.5224 138.223L65.4668 110.734C65.4576 108.124 67.5769 106.004 70.1866 105.995L97.6727 105.94C100.282 105.93 102.402 108.05 102.411 110.66L102.467 138.149C102.467 140.759 100.356 142.879 97.7467 142.888Z" fill="white"/>
<path d="M215.419 225.235L119.653 225.429C117.792 225.429 116.284 223.93 116.275 222.07V221.653C116.275 219.793 117.774 218.284 119.634 218.275L215.4 218.08C217.26 218.08 218.769 219.58 218.778 221.44V221.857C218.778 223.717 217.279 225.226 215.419 225.235Z" fill="#C8DBFB"/>
<path d="M209.884 116.112L134.21 116.269C132.35 116.269 130.841 114.769 130.832 112.909V112.493C130.832 110.632 132.331 109.124 134.191 109.114L209.866 108.957C211.726 108.957 213.234 110.456 213.244 112.317V112.733C213.244 114.594 211.744 116.112 209.884 116.112Z" fill="#E6E7E8"/>
<path d="M329.518 192.655L228.616 192.868C226.756 192.868 225.247 191.369 225.238 189.508V189.092C225.238 187.232 226.737 185.723 228.597 185.714L329.5 185.51C331.36 185.51 332.868 187.009 332.877 188.87V189.286C332.877 191.137 331.378 192.655 329.518 192.655Z" fill="#C8DBFB"/>
<path d="M215.446 240.026L119.68 240.22C117.82 240.22 116.311 238.72 116.302 236.86V236.444C116.302 234.583 117.801 233.075 119.661 233.065L215.428 232.871C217.288 232.871 218.796 234.37 218.805 236.231V236.647C218.815 238.508 217.306 240.026 215.446 240.026Z" fill="#C8DBFB"/>
<path d="M215.474 254.816L119.708 255.01C117.848 255.01 116.339 253.511 116.33 251.651V251.234C116.33 249.374 117.829 247.865 119.689 247.856L215.455 247.661C217.316 247.661 218.824 249.161 218.833 251.021V251.438C218.843 253.307 217.334 254.816 215.474 254.816Z" fill="#C8DBFB"/>
<path d="M327.463 264.47L230.948 264.673C227.875 264.682 225.376 262.193 225.376 259.12L225.293 217.664C225.284 214.591 227.773 212.092 230.846 212.092L327.361 211.888C330.434 211.879 332.933 214.369 332.933 217.442L333.016 258.898C333.025 261.97 330.536 264.46 327.463 264.47Z" fill="#BCBEC0"/>
<path d="M75.1656 90.7327C75.1656 92.0377 74.1106 93.0929 72.815 93.0929C71.5194 93.0929 70.4551 92.0377 70.4551 90.7419C70.4551 89.4462 71.5101 88.3818 72.8057 88.3818C74.1014 88.3818 75.1656 89.4277 75.1656 90.7327Z" fill="#C8DBFB"/>
<path d="M82.8006 93.0743C84.1039 93.0743 85.1605 92.0176 85.1605 90.7142C85.1605 89.4107 84.1039 88.354 82.8006 88.354C81.4972 88.354 80.4407 89.4107 80.4407 90.7142C80.4407 92.0176 81.4972 93.0743 82.8006 93.0743Z" fill="#C8DBFB"/>
<path d="M95.1464 90.6864C95.1464 91.9914 94.0913 93.0466 92.7957 93.0466C91.4908 93.0466 90.4358 91.9914 90.4358 90.6957C90.4358 89.3906 91.4908 88.3355 92.7865 88.3355C94.0821 88.3355 95.1371 89.3906 95.1464 90.6864Z" fill="#C8DBFB"/>
<path d="M127.123 113.406C127.499 109.658 124.765 106.315 121.017 105.939C117.269 105.563 113.926 108.298 113.55 112.046C113.175 115.795 115.909 119.138 119.657 119.514C123.405 119.889 126.748 117.155 127.123 113.406Z" fill="#C8DBFB"/>
<path d="M99.6624 148.654L69.4463 148.719C68.743 148.719 68.1784 148.154 68.1692 147.451V147.294C68.1692 146.59 68.7337 146.026 69.4371 146.016L99.6532 145.952C100.357 145.952 100.921 146.516 100.93 147.22V147.377C100.93 148.08 100.366 148.654 99.6624 148.654Z" fill="white"/>
<path d="M99.6717 154.42L69.4556 154.485C68.7523 154.485 68.1877 153.921 68.1785 153.217V153.06C68.1785 152.356 68.743 151.792 69.4463 151.783L99.6625 151.718C100.366 151.718 100.93 152.282 100.94 152.986V153.143C100.94 153.847 100.375 154.42 99.6717 154.42Z" fill="white"/>
<path d="M134.265 166.619L125.723 166.703L125.788 202.503L118.412 202.522C115.812 202.531 113.702 200.421 113.692 197.82L113.553 131.615C113.544 128.986 115.673 126.848 118.301 126.848L134.173 126.811L134.265 166.619Z" fill="#E6E7E8"/>
<path d="M189.691 126.7V127.626C192.245 127.626 194.327 129.699 194.327 132.253L194.457 196.802C194.457 198.042 193.976 199.208 193.106 200.088C192.236 200.967 191.07 201.448 189.83 201.457L119.245 201.606C116.691 201.606 114.609 199.532 114.609 196.978L114.479 132.429C114.479 131.189 114.96 130.023 115.83 129.143C116.7 128.264 117.866 127.783 119.106 127.774L189.681 127.626L189.691 126.7ZM189.691 126.7H189.681L119.106 126.848C116.034 126.857 113.544 129.347 113.553 132.42L113.683 196.968C113.692 200.041 116.182 202.522 119.245 202.522H119.254L189.83 202.374C192.902 202.364 195.392 199.875 195.382 196.802L195.253 132.253C195.253 129.18 192.763 126.7 189.691 126.7Z" fill="#C8DBFB"/>
<path d="M307.538 179.827L213.401 158.548C210.402 157.873 208.523 154.892 209.199 151.894L219.786 105.033C220.462 102.034 223.442 100.155 226.44 100.831L320.578 122.109C323.576 122.785 325.455 125.765 324.779 128.764L314.192 175.625C313.516 178.624 310.536 180.503 307.538 179.827Z" fill="#BCBEC0"/>
<path d="M125.353 307.277L112.175 307.304L108.954 290.524L128.509 290.478L125.353 307.277Z" fill="#5851BC"/>
<path d="M112.6 290.515C112.6 291.885 112.341 294.18 113.257 294.217C114.174 294.254 113.794 292.033 114.831 292.097C115.497 292.134 114.525 299.391 117.033 299.567C118.755 299.687 118.44 296.013 118.616 293.708C118.736 292.153 120.726 292.458 120.744 293.486C120.763 294.643 120.689 295.411 120.744 296.725C120.837 298.919 124.205 298.336 124.085 295.411C123.965 292.486 124.076 290.505 124.076 290.505L112.6 290.515Z" fill="#C8DBFB"/>
<path d="M109.454 300.65C109.185 300.65 108.926 300.622 108.676 300.566C107.705 300.353 107.029 299.844 106.65 299.048C105.308 296.198 108.843 290.866 108.982 290.626L109.167 291.588C109.139 291.644 106.057 296.225 107.27 298.789C107.557 299.4 108.066 299.78 108.834 299.946C109.047 299.992 109.269 300.011 109.491 300.011C114.238 300.002 122.345 291.163 122.438 291.061C122.771 290.663 123.391 291.042 123.169 291.375C122.79 291.801 114.553 300.64 109.454 300.65Z" fill="#0C2340"/>
<path opacity="0.2" d="M247.865 71.1293C229.143 70.4166 203.369 84.263 212.513 118.12C212.318 120.98 214.03 123.025 215.853 122.47C217.677 121.915 216.066 116.482 216.066 116.482C219.185 91.3065 225.015 86.9564 234.909 87.0489L258.128 87.0026C263.866 87.8449 274.296 91.8618 275.86 112.011L281.644 113.076C282.098 98.5166 278.581 72.3047 247.865 71.1293Z" fill="#5275A0"/>
<path d="M247.865 68.186C229.143 67.4733 203.369 81.3197 212.513 115.177L216.066 113.538C219.185 88.3632 225.015 84.0131 234.909 84.1056L258.128 84.0593C263.866 84.9016 274.574 90.0014 276.138 110.151L281.644 110.142C282.098 95.5733 278.581 69.3615 247.865 68.186Z" fill="#EF832B"/>
<path d="M244.034 68.7321L241.257 74.8408C241.257 74.8408 241.59 78.2839 244.968 78.2098C248.346 78.1358 248.8 76.5808 248.8 76.5808L249.244 69.5651L244.034 68.7321Z" fill="#FFB9A3"/>
<path d="M258.332 63.6322C255.167 69.2319 253.76 70.9812 249.614 71.8235C244.247 72.9156 238.231 69.2967 241.026 60.3743C243.303 53.0994 246.764 54.2193 250.142 54.497C253.52 54.7654 261.756 57.5791 258.332 63.6322Z" fill="#FFB9A3"/>
<path d="M245.727 59.2173C244.885 58.7823 243.802 59.1525 243.145 59.8375C242.47 60.5501 242.146 61.6053 242.433 62.5401C241.137 62.5586 239.999 63.8266 240.119 65.1224C239.231 63.0584 239.712 60.9019 239.536 58.7823C239.36 56.6628 239.592 54.3674 240.961 52.7477C241.526 52.0813 242.248 51.5722 243.016 51.165C245.931 49.61 249.605 49.5637 252.566 51.0261C253.177 51.3316 254.713 52.2941 256.861 51.7758C260.951 50.7855 263.339 53.5529 260.886 56.1445C261.673 56.4314 262.543 56.7831 262.895 57.5421C262.987 57.7364 263.033 57.9771 262.913 58.1529C262.83 58.2733 262.682 58.338 262.534 58.3843C261.849 58.6157 261.099 58.6713 260.377 58.5509C260.655 58.7823 262.173 58.8749 262.626 59.7634C263.848 62.1143 259.017 60.9296 258.276 60.689C259.119 60.8463 261.321 62.6049 260.618 63.8174C260.479 64.058 257.499 65.7888 254.371 62.1514C253.64 61.3091 252.733 60.5224 251.659 60.2354C250.817 60.0133 249.929 60.3187 249.105 60.6334C248.504 60.8556 246.977 61.7904 246.542 61.2351C246.088 60.6334 246.708 59.6986 245.727 59.2173Z" fill="#0C2340"/>
<path d="M276.739 110.142C275.906 113.002 275.073 113.279 276.073 113.733C277.082 114.186 277.896 112.585 277.896 112.585L282.542 113.511C282.542 113.511 281.496 110.493 280.765 110.132C280.034 109.771 276.739 110.142 276.739 110.142Z" fill="#FFB9A3"/>
<path d="M216.066 113.529C216.677 115.038 216.844 115.047 217.686 116.861C219.306 120.323 215.52 125.793 213.17 119.823C212.522 118.185 212.513 115.177 212.513 115.177L216.066 113.529Z" fill="#FFB9A3"/>
<path d="M252.344 51.5167C254.13 51.6925 255.814 51.0632 257.563 50.8781C259.081 50.7115 260.877 50.9428 261.858 52.2664C262.089 52.5811 262.607 52.3034 262.394 51.9517C261.543 50.5171 259.868 50.0358 258.285 50.1469C256.277 50.2764 254.371 51.128 252.335 50.9984C252.001 50.9614 252.011 51.4797 252.344 51.5167Z" fill="#0C2340"/>
<path d="M253.621 49.7674C251.613 50.2487 249.605 49.1843 247.578 49.4064C245.681 49.61 243.913 50.5449 242.506 51.8129C242.173 52.1183 242.617 52.7014 242.997 52.4422C244.57 51.3686 246.255 50.3042 248.216 50.2857C250.095 50.2672 251.955 51.128 253.806 50.443C254.213 50.2764 254.056 49.6563 253.621 49.7674Z" fill="#0C2340"/>
<path d="M241.276 52.7292C240.526 53.1735 239.832 53.7195 239.378 54.4785C238.943 55.2097 238.74 56.0705 238.675 56.9127C238.601 57.8938 238.74 58.8842 238.925 59.856C239.055 60.5502 239.101 61.6423 239.924 61.8737C240.295 61.9755 240.461 61.485 240.174 61.2814C239.906 61.0963 239.86 60.689 239.795 60.3928C239.712 60.0041 239.628 59.6246 239.564 59.2359C239.425 58.4491 239.332 57.6439 239.378 56.8387C239.48 55.2652 240.23 54.0065 241.498 53.0994C241.711 52.9421 241.516 52.5811 241.276 52.7292Z" fill="#0C2340"/>
<path d="M264.754 57.9401C264.356 57.2089 263.699 56.6165 262.931 56.2926C262.172 55.9594 261.154 55.802 260.414 56.2463C260.182 56.3851 260.275 56.7646 260.553 56.7553C260.914 56.7553 261.274 56.7183 261.635 56.7276C261.987 56.7368 262.33 56.8201 262.663 56.9312C263.338 57.1626 263.931 57.5884 264.338 58.19C264.504 58.4399 264.902 58.2177 264.754 57.9401Z" fill="#0C2340"/>
<path d="M161.77 199.134C171.589 202.744 180.112 213.999 178.15 222.19C175.938 231.436 169.562 235.425 169.562 235.425L167.554 231.714C167.554 231.714 172.653 223.745 172.209 219.978C171.496 213.952 163.889 209.917 163.889 209.917L161.77 199.134Z" fill="#5851BC"/>
<path d="M137.606 303.463C137.606 303.463 131.581 305.898 130.073 307.277L142.011 307.249L142.002 303.454L137.606 303.463Z" fill="#0C2340"/>
<path d="M163.991 303.232C163.991 303.232 165.703 305.213 166.018 307.203L157.874 307.221C158.012 305.851 158.595 304.528 159.391 303.241L163.991 303.232Z" fill="#0C2340"/>
<path d="M164.49 303.408L158.928 303.417C159.039 296.864 157.688 274.53 156.383 257.833C155.615 248.041 154.856 240.174 154.412 238.582L157.392 237.924L168.636 235.425C170.561 244.218 166.119 284.591 164.49 303.408Z" fill="#FCA70C"/>
<path d="M144.047 238.23C139.707 245.06 138.587 294.448 136.773 303.602L142.048 303.898C142.048 303.898 148.11 272.762 161.011 237.758L144.047 238.23Z" fill="#FCA70C"/>
<path opacity="0.2" d="M163.232 237.758C160.687 244.672 158.401 251.438 156.383 257.833C155.615 248.041 154.856 240.174 154.412 238.582L157.392 237.924L163.232 237.758Z" fill="#5275A0"/>
<path d="M144.047 238.23C139.707 245.06 138.587 294.448 136.773 303.602L142.048 303.898C142.048 303.898 148.11 272.762 161.011 237.758L144.047 238.23Z" fill="#FCA70C"/>
<path d="M147.36 183.094C147.36 183.094 143.982 195.96 152.423 195.95L151.923 199.236L158.327 199.939L156.939 195.358C156.939 195.358 158.207 187.269 158.29 185.806C158.447 183.076 150.803 178.263 147.36 183.094Z" fill="#FFB9A3"/>
<path d="M126.5 168.663L124.01 168.668L124.031 179.173L126.52 179.168L126.5 168.663Z" fill="#0C2340"/>
<path d="M132.386 168.656L118.116 168.683C117.116 168.683 116.302 167.878 116.302 166.878V166.508C116.302 165.509 117.107 164.694 118.107 164.694L132.377 164.666C133.377 164.666 134.191 165.472 134.191 166.471V166.841C134.2 167.841 133.386 168.656 132.386 168.656Z" fill="#5851BC"/>
<path d="M123.345 181.919C123.28 179.54 121.309 180.16 122.391 176.273C123.058 173.866 128.027 176.662 127.407 178.328C126.787 179.994 126.075 182.631 126.075 182.631L123.345 181.919Z" fill="#FFB9A3"/>
<path d="M152.478 198.477C139.864 199.31 139.031 203.568 133.386 202.901C125.029 201.92 126.491 186.399 127.528 180.836L122.539 180.845C122.539 180.845 113.544 216.192 141.956 209.658C140.863 215.85 147.934 225.966 141.076 238.239C151.858 241.164 161.927 241.886 170.543 238.184C169.034 236.147 173.634 215.609 164.629 200.828C162.871 197.931 153.403 198.412 152.478 198.477Z" fill="#5851BC"/>
<path d="M152.478 198.477C139.864 199.31 139.031 203.568 133.386 202.901C125.029 201.92 126.491 186.399 127.528 180.836L122.539 180.845C122.539 180.845 113.544 216.192 141.956 209.658C140.863 215.85 147.934 225.966 141.076 238.239C151.858 241.164 161.927 241.886 170.543 238.184C169.034 236.147 173.634 215.609 164.629 200.828C162.871 197.931 153.403 198.412 152.478 198.477Z" fill="#5851BC"/>
<path d="M150.738 185.556C151.562 185.769 152.515 185.926 152.959 186.621C153.246 187.074 153.228 187.639 153.2 188.166C153.348 187.611 153.968 187.213 154.551 187.287C155.144 187.352 155.643 187.879 155.653 188.453C155.662 188.722 155.569 188.981 155.467 189.231C155.218 189.86 154.903 190.452 154.533 191.017C155.56 191.397 156.43 194.414 156.939 195.349C158.67 194.914 162.529 193.423 162.862 187.287C163.019 184.427 162.149 181.002 159.049 179.105C156.856 177.763 153.228 177.745 150.72 178.383C148.684 178.901 145.445 180.938 146.953 183.307C147.712 184.51 149.378 185.214 150.738 185.556Z" fill="#EF832B"/>
<path d="M161.548 181.65C162.723 181.262 164.213 181.465 164.916 182.446C165.462 183.215 165.416 184.214 165.592 185.13C165.675 185.575 165.832 186.019 166.175 186.324C166.582 186.685 167.174 186.778 167.73 186.806C169.09 186.88 170.46 186.704 171.802 186.935C173.143 187.167 174.513 187.916 174.893 189.166C175.105 189.86 174.985 190.619 175.244 191.295C175.624 192.313 176.706 192.896 177.65 193.488C179.659 194.747 181.371 196.45 182.602 198.422C183.388 199.671 183.99 201.059 184.082 202.512C184.175 203.966 185.23 205.891 184.943 207.316C184.638 208.862 183.12 210.954 180.121 211.916C174.939 213.582 173.292 214.304 168.322 211.352C167.72 211 166.554 209.787 166.008 209.352C165.583 209.01 165.314 208.519 165.166 208.01C164.75 206.585 165.231 205.049 165.971 203.753C166.712 202.457 167.72 201.309 168.479 200.023C168.933 199.245 169.303 198.384 169.266 197.496C169.247 197.163 169.164 196.82 168.923 196.58C168.711 196.376 168.414 196.274 168.118 196.219C167.026 196.006 165.823 196.228 164.842 195.737C163.88 195.265 163.352 194.099 163.648 193.1C163.843 192.433 164.352 191.869 164.49 191.193C164.694 190.212 164.083 189.212 163.232 188.638C162.38 188.065 161.335 187.842 160.307 187.676C159.798 187.592 159.271 187.509 158.864 187.213C158.355 186.852 158.123 186.213 158.133 185.612C158.17 183.687 159.734 182.252 161.548 181.65Z" fill="#EF832B"/>
<path d="M160.659 186.834C162.408 187.046 163.528 188.814 163.038 190.49C162.584 192.007 161.427 193.257 161.39 194.904C161.362 196.274 162.297 197.246 163.593 197.524C164.268 197.672 164.944 197.635 165.629 197.616C166.314 197.607 167.128 197.589 167.693 198.051C168.442 198.681 168.239 199.791 167.933 200.597C167.582 201.522 167.091 202.327 167.045 203.346C167.026 203.679 167.591 203.771 167.637 203.429C167.887 201.809 169.238 200.347 168.803 198.634C168.405 197.061 166.739 196.931 165.379 196.978C164.583 197.005 163.741 197.024 163.01 196.645C162.121 196.182 161.89 195.228 162.075 194.294C162.418 192.6 163.88 191.211 163.676 189.388C163.5 187.842 162.177 186.611 160.641 186.5C160.446 186.482 160.456 186.806 160.659 186.834Z" fill="#EF832B"/>
<path d="M147.758 179.188C150.044 178.004 152.488 177.273 155.088 177.643C157.494 177.985 159.669 179.179 161.437 180.817C161.714 181.067 162.075 180.688 161.844 180.41C158.475 176.43 151.682 175.569 147.61 178.985C147.481 179.077 147.629 179.253 147.758 179.188Z" fill="#EF832B"/>
<path d="M309.399 194.284L307.316 198.477L312.406 200.56L312.952 195.737L309.399 194.284Z" fill="#FFB9A3"/>
<path d="M312.471 180.632C300.912 185.667 305.65 197.866 312.684 196.432C316.108 195.737 317.838 184.705 317.838 184.705L312.471 180.632Z" fill="#FFB9A3"/>
<path d="M316.311 178.892C315.932 178.189 315.571 177.43 314.942 176.93C314.312 176.43 313.322 176.264 312.739 176.81C311.962 177.532 312.415 178.883 313.202 179.596C312.526 179.679 311.721 179.207 311.221 179.679C310.842 180.031 310.972 180.66 311.194 181.132C311.703 182.234 312.536 183.196 313.563 183.844C312.98 184.177 312.295 184.825 312.647 185.399C312.748 185.556 312.906 185.667 313.008 185.825C313.23 186.195 313.017 186.676 312.785 187.046C312.425 187.648 312.027 188.231 311.61 188.796C312.008 188.25 312.98 188.472 313.267 189.083C313.554 189.694 313.304 190.443 312.85 190.943C312.6 191.221 312.286 191.452 311.916 191.535C311.601 191.609 310.194 195.941 311.286 196.793C312.637 197.838 317.228 196.931 317.894 195.747C318.56 196.469 319.532 197.015 320.494 196.82C321.457 196.626 322.188 195.441 321.67 194.608C322.706 194.988 323.974 194.655 324.687 193.803C325.399 192.952 325.501 191.646 324.937 190.693C325.501 190.527 325.622 189.758 325.473 189.184C325.177 188.028 324.233 187.046 323.077 186.722C323.66 186.732 324.122 186.139 324.15 185.556C324.178 184.973 323.872 184.418 323.502 183.964C322.419 182.622 321.133 182.271 319.532 182.067C317.922 181.882 317.033 180.225 316.311 178.892Z" fill="#5851BC"/>
<path d="M305.484 302.658C305.484 302.658 298.718 305.907 297.812 306.916C297.812 306.916 311.12 307.517 312.165 306.888C313.211 306.259 310.037 302.649 310.037 302.649L305.484 302.658Z" fill="#0C2340"/>
<path d="M330.647 298.984C330.647 298.984 324.705 303.565 324.021 304.741C324.021 304.741 338.05 302.658 338.05 301.742C338.05 300.825 335.089 298.03 335.089 298.03L330.647 298.984Z" fill="#0C2340"/>
<path d="M312.018 239.942C311.768 241.321 302.504 277.881 329.009 299.807L336.681 298.049C336.681 298.049 327.75 289.673 323.54 274.586C319.56 260.323 322.716 258.925 325.104 251.077C327.75 242.386 325.779 236.073 325.779 236.073L312.018 239.942Z" fill="#D8742A"/>
<path d="M299.357 239.831C295.156 249.873 287.946 284.091 303.661 303.352L311.509 303.334C311.509 303.334 305.326 296.559 304.632 280.833C303.938 265.108 307.936 258.203 310.759 253.02C313.582 247.837 316.191 239.017 316.191 239.017L299.357 239.831Z" fill="#EF832B"/>
<path d="M293.823 177.587C291.741 184.936 291.056 198.523 301.495 203.993L308.483 202.29C308.483 202.29 295.878 195.682 298.58 178.985L293.823 177.587Z" fill="#5851BC"/>
<path d="M274.564 173.82L279.987 173.154C279.987 173.154 279.33 195.941 305.65 197.866C325.742 199.329 327.315 237.036 327.315 237.036C320.837 241.395 309.972 242.719 296.044 241.719C296.044 241.719 296.933 214.822 294.721 207.455C294.721 207.455 272.852 200.569 274.564 173.82Z" fill="#5851BC"/>
<path d="M267.929 169.683C267.013 170.747 270.844 172.099 274.564 173.82L279.33 173.237C279.33 173.237 279.386 172.284 279.33 171.293C279.275 170.303 278.775 169.738 278.211 170.59C277.646 171.441 275.24 171.728 274.102 170.951C272.954 170.173 268.845 168.619 267.929 169.683Z" fill="#FFB9A3"/>
<path d="M293.823 177.587C292.074 175.875 292.546 175.977 292.546 175.977L297.867 177.18C297.867 177.18 299.033 174.579 300.033 174.514C301.023 174.44 299.283 176.301 299.681 176.995C300.079 177.689 298.589 178.994 298.589 178.994L293.823 177.587Z" fill="#FFB9A3"/>
<path d="M319.301 181.401C319.911 181.567 320.55 181.641 321.161 181.845C321.744 182.039 322.281 182.345 322.706 182.789C323.4 183.511 323.66 184.714 323.067 185.566C322.79 185.964 323.428 186.463 323.743 186.084C324.705 184.945 324.4 183.316 323.456 182.261C322.966 181.715 322.271 181.363 321.577 181.141C320.855 180.919 320.05 180.799 319.301 180.91C319.051 180.956 319.079 181.345 319.301 181.401Z" fill="#4A49CA"/>
<path d="M324.113 191.276C324.798 191.656 325.399 192.341 325.168 193.174C324.918 194.062 324.039 194.58 323.336 195.071C323.012 195.302 323.289 195.793 323.65 195.608C324.622 195.099 325.649 194.386 325.853 193.22C326.038 192.137 325.335 191.248 324.409 190.776C324.076 190.61 323.789 191.1 324.113 191.276Z" fill="#4A49CA"/>
<path d="M311.962 196.793C313.165 197.589 314.636 197.903 316.071 197.737C317.45 197.579 319.004 197.033 319.911 195.923C320.133 195.654 319.837 195.154 319.504 195.395C318.431 196.163 317.357 196.802 316.024 196.996C314.72 197.191 313.359 196.996 312.156 196.441C311.934 196.348 311.749 196.654 311.962 196.793Z" fill="#4A49CA"/>
<path d="M324.437 183.011C325.029 183.511 325.122 184.344 324.936 185.047C324.825 185.454 324.603 185.834 324.372 186.186C324.113 186.584 323.826 186.963 323.53 187.333C323.326 187.583 323.641 187.926 323.891 187.694C324.677 186.963 325.445 186.176 325.594 185.056C325.714 184.205 325.371 183.224 324.557 182.844C324.464 182.807 324.335 182.937 324.437 183.011Z" fill="#4A49CA"/>
<path d="M167.887 13.9297L165.721 8.62626L186.664 0.675697L167.887 13.9297Z" fill="#5851BC"/>
<path d="M168.942 10.6625L186.664 0.675697L174.328 13.1985L168.942 10.6625Z" fill="#5851BC"/>
<path d="M160.927 6.4697L186.664 0.675697L165.721 8.62626L160.927 6.4697Z" fill="#5851BC"/>
<path d="M168.942 10.6625L167.887 13.9297L171.089 11.6714L168.942 10.6625Z" fill="#5851BC"/>
<path d="M165.425 13.217C159.956 12.2915 152.534 17.8263 155.727 23.5833C156.809 25.5455 162.418 24.694 162.001 22.5282C161.798 21.4915 160.53 21.0473 159.484 21.1676C153.376 21.871 153.126 26.9894 153.404 28.2944C154.801 35.0325 165.129 32.7556 168.6 31.8023" stroke="#C8DBFB" stroke-width="0.591988" stroke-miterlimit="10" stroke-linecap="round" stroke-linejoin="round" stroke-dasharray="2.37 2.37"/>
</g>
<defs>
<clipPath id="clip0">
<rect width="415.576" height="310.794" fill="white" transform="translate(0 0.67569)"/>
</clipPath>
</defs>
</svg>
