<svg width="756" height="583" viewBox="0 0 756 583" fill="none" xmlns="http://www.w3.org/2000/svg">
<g clip-path="url(#clip0)">
<path d="M6.13313 348.864C19.2152 312.414 39.8199 301.323 59.4099 277.949C83.3458 249.393 99.4722 228.643 93.2731 191.907C83.1252 131.885 78.7792 -17.7959 237.749 1.76314C294.732 8.77528 339.758 52.4137 372.496 95.986C400.359 133.053 450.503 136.317 490.852 144.961C540.445 155.589 590.942 171.62 636.806 195.126C731.292 243.528 759.508 313.098 755.647 402.139C754.478 429.041 750.684 471.4 705.216 520.97C643.865 587.872 554.718 596.847 447.414 566.108C422.861 559.074 399.631 548.049 375.474 539.735C350.369 531.114 324.249 525.447 297.842 522.889C236.205 516.935 172.317 527.696 113.216 509.305C81.956 499.581 53.2549 481.786 30.6426 458.104C2.3828 428.556 -7.6769 387.321 6.13313 348.864Z" fill="#EAE6FF"/>
<path d="M705.216 486.175C705.216 494.973 593.589 502.096 455.886 502.096C318.204 502.096 206.577 494.951 206.577 486.175C206.577 477.377 318.204 470.254 455.886 470.254C593.589 470.254 705.216 477.377 705.216 486.175Z" fill="#CDCCFF"/>
<path d="M553.085 505.844C553.085 511.357 581.411 515.811 616.377 515.811C651.343 515.811 679.669 511.357 679.669 505.844C679.669 500.332 651.343 495.877 616.377 495.877C581.411 495.877 553.085 500.332 553.085 505.844Z" fill="#CDCCFF"/>
<path d="M132.033 515.811C190.686 515.811 238.234 512.277 238.234 507.917C238.234 503.557 190.686 500.023 132.033 500.023C73.3806 500.023 25.833 503.557 25.833 507.917C25.833 512.277 73.3806 515.811 132.033 515.811Z" fill="#CDCCFF"/>
<path d="M680.332 376.803L684.413 433.893H629.923L633.673 376.693L680.332 376.803Z" fill="#D7D7FF"/>
<path d="M667.646 383.396C666.61 383.396 665.771 382.691 665.771 381.809C665.771 380.949 666.61 380.243 667.646 380.243C668.683 380.243 669.521 380.949 669.521 381.831C669.521 382.691 668.683 383.396 667.646 383.396ZM667.646 380.839C666.94 380.839 666.389 381.28 666.389 381.809C666.389 382.338 666.963 382.779 667.646 382.779C668.352 382.779 668.904 382.338 668.904 381.809C668.926 381.28 668.352 380.839 667.646 380.839Z" fill="#EAE6FF"/>
<path d="M649.071 383.352C648.586 383.352 648.123 383.198 647.77 382.911C647.395 382.603 647.196 382.206 647.196 381.765C647.196 380.905 648.034 380.199 649.071 380.199C649.623 380.199 650.152 380.398 650.505 380.75C650.792 381.037 650.946 381.39 650.946 381.765H650.638H650.946C650.946 382.647 650.108 383.352 649.071 383.352ZM649.071 380.795C648.365 380.795 647.814 381.236 647.814 381.765C647.814 382.007 647.946 382.25 648.167 382.426C648.409 382.625 648.74 382.735 649.093 382.735C649.799 382.735 650.351 382.294 650.351 381.765C650.351 381.5 650.218 381.302 650.086 381.169C649.843 380.927 649.468 380.795 649.071 380.795Z" fill="#EAE6FF"/>
<path d="M658.91 393.297C658.734 393.297 658.557 393.297 658.381 393.297C654.962 393.187 652.358 392.085 650.638 390.034C647.792 386.638 648.432 381.897 648.454 381.699C648.498 381.368 648.807 381.125 649.138 381.191C649.468 381.236 649.689 381.544 649.645 381.875C649.645 381.919 649.049 386.285 651.564 389.284C653.064 391.048 655.359 392.018 658.403 392.107C661.359 392.195 663.565 391.423 665.021 389.791C667.691 386.836 667.029 381.963 667.029 381.919C666.985 381.588 667.205 381.28 667.536 381.236C667.845 381.191 668.176 381.412 668.22 381.743C668.242 381.963 668.97 387.211 665.926 390.585C664.337 392.371 661.977 393.297 658.91 393.297Z" fill="#EAE6FF"/>
<path d="M654.697 392.79L661.227 435.238L602.06 435.106L608.06 392.68L654.697 392.79Z" fill="#BDC6F9"/>
<path d="M664.624 476.451C664.624 483.066 670.007 488.446 676.625 488.446C683.244 488.446 688.626 483.066 688.626 476.451C688.626 469.836 683.244 464.455 676.625 464.455C669.985 464.455 664.624 469.836 664.624 476.451ZM671.022 476.451C671.022 473.386 673.515 470.894 676.625 470.894C679.692 470.894 682.185 473.386 682.185 476.451C682.185 479.538 679.692 482.008 676.625 482.008C673.515 482.03 671.022 479.538 671.022 476.451Z" fill="#8784EF"/>
<path d="M666.588 476.451C666.588 483.066 671.97 488.446 678.589 488.446C685.207 488.446 690.59 483.066 690.59 476.451C690.59 469.836 685.207 464.455 678.589 464.455C671.97 464.455 666.588 469.836 666.588 476.451ZM672.985 476.451C672.985 473.386 675.478 470.894 678.589 470.894C681.655 470.894 684.148 473.386 684.148 476.451C684.148 479.538 681.655 482.008 678.589 482.008C675.5 482.03 672.985 479.538 672.985 476.451Z" fill="#9AA3F4"/>
<path d="M596.832 476.451C596.832 483.066 602.214 488.446 608.833 488.446C615.451 488.446 620.834 483.066 620.834 476.451C620.834 469.836 615.451 464.455 608.833 464.455C602.214 464.455 596.832 469.836 596.832 476.451ZM603.229 476.451C603.229 473.386 605.722 470.894 608.833 470.894C611.899 470.894 614.392 473.386 614.392 476.451C614.392 479.538 611.899 482.008 608.833 482.008C605.744 482.03 603.229 479.538 603.229 476.451Z" fill="#8784EF"/>
<path d="M598.817 476.451C598.817 483.066 604.2 488.446 610.818 488.446C617.436 488.446 622.819 483.066 622.819 476.451C622.819 469.836 617.436 464.455 610.818 464.455C604.178 464.455 598.817 469.836 598.817 476.451ZM605.214 476.451C605.214 473.386 607.707 470.894 610.818 470.894C613.884 470.894 616.377 473.386 616.377 476.451C616.377 479.538 613.884 482.008 610.818 482.008C607.707 482.03 605.214 479.538 605.214 476.451Z" fill="#9AA3F4"/>
<path d="M518.295 329.857H554.342C558.137 329.857 561.667 331.82 563.652 335.039L585.448 370.012" stroke="#9AA3F4" stroke-width="1.5" stroke-miterlimit="10"/>
<path d="M682.295 434.268H601.751C597.471 434.268 593.809 431.158 593.125 426.925L584.786 374.951C583.926 369.637 588.029 364.83 593.412 364.83H690.634C696.017 364.83 700.098 369.637 699.26 374.951L690.921 426.925C690.237 431.158 686.575 434.268 682.295 434.268Z" stroke="#9AA3F4" stroke-width="1.5" stroke-miterlimit="10"/>
<path d="M642.012 364.83V434.268" stroke="#9AA3F4" stroke-width="1.5" stroke-miterlimit="10"/>
<path d="M588.735 399.56H695.311" stroke="#9AA3F4" stroke-width="1.5" stroke-miterlimit="10"/>
<path d="M610.2 364.83L617.105 434.268" stroke="#9AA3F4" stroke-width="1.5" stroke-miterlimit="10"/>
<path d="M672.235 364.83L665.882 434.268" stroke="#9AA3F4" stroke-width="1.5" stroke-miterlimit="10"/>
<path d="M595.022 431.114L581.962 450.519C578.411 455.789 582.205 462.889 588.559 462.889H695.289" stroke="#9AA3F4" stroke-width="1.5" stroke-miterlimit="10"/>
<path d="M314.498 470.041L425 470.041L425 440.338L314.498 440.338L314.498 470.041Z" fill="#4A41A3"/>
<path d="M198.369 450.012H540.002C551.43 450.012 560.717 440.751 560.717 429.306V195.259C560.717 183.837 551.452 174.554 540.002 174.554H198.369C186.942 174.554 177.654 183.815 177.654 195.259V429.328C177.654 440.751 186.92 450.012 198.369 450.012Z" fill="#5851BC"/>
<path d="M202.231 423.595H537.267C544.305 423.595 549.996 417.906 549.996 410.872V197.332C549.996 190.298 544.305 184.609 537.267 184.609H202.231C195.193 184.609 189.502 190.298 189.502 197.332V410.872C189.524 417.906 195.215 423.595 202.231 423.595Z" fill="#C4C3FC"/>
<path d="M267.023 486.175H472.519V483.595C472.519 474.687 465.283 467.454 456.371 467.454H283.194C274.281 467.454 267.045 474.687 267.045 483.595V486.175H267.023Z" fill="#5851BC"/>
<g opacity="0.35">
<g opacity="0.35">
<g opacity="0.35">
<path opacity="0.35" d="M222.725 370.585H452.863C458.974 370.585 463.916 365.646 463.916 359.538V212.15C463.916 206.042 458.974 201.103 452.863 201.103H222.725C216.614 201.103 211.673 206.042 211.673 212.15V359.516C211.673 365.646 216.637 370.585 222.725 370.585Z" fill="white"/>
</g>
</g>
</g>
<g opacity="0.25">
<g opacity="0.25">
<g opacity="0.25">
<g opacity="0.25">
<g opacity="0.25">
<path opacity="0.25" d="M439.935 324.918H428.949V352.481H439.935V324.918Z" fill="#FCA70C"/>
</g>
</g>
</g>
<g opacity="0.25">
<g opacity="0.25">
<g opacity="0.25">
<path opacity="0.25" d="M415.183 300.706H404.197V352.481H415.183V300.706Z" fill="#B1AFFD"/>
</g>
</g>
</g>
<g opacity="0.25">
<g opacity="0.25">
<g opacity="0.25">
<path opacity="0.25" d="M390.431 306.065H379.445V352.481H390.431V306.065Z" fill="#FCA70C"/>
</g>
</g>
</g>
<g opacity="0.25">
<g opacity="0.25">
<g opacity="0.25">
<path opacity="0.25" d="M365.657 279.846H354.671V352.481H365.657V279.846Z" fill="#B1AFFD"/>
</g>
</g>
</g>
<g opacity="0.15">
<g opacity="0.15">
<g opacity="0.15">
<path opacity="0.26" d="M415.205 300.706H410.153V352.481H415.205V300.706Z" fill="black"/>
</g>
</g>
</g>
<g opacity="0.15">
<g opacity="0.15">
<g opacity="0.15">
<path opacity="0.26" d="M439.957 324.918H434.906V352.481H439.957V324.918Z" fill="black"/>
</g>
</g>
</g>
<g opacity="0.62">
<g opacity="0.62">
<g opacity="0.62">
<path opacity="0.26" d="M365.679 279.846H360.627V352.481H365.679V279.846Z" fill="black"/>
</g>
</g>
</g>
<g opacity="0.15">
<g opacity="0.15">
<g opacity="0.15">
<path opacity="0.26" d="M390.431 306.065H385.379V352.481H390.431V306.065Z" fill="black"/>
</g>
</g>
</g>
<g opacity="0.25">
<g opacity="0.25">
<g opacity="0.25">
<path opacity="0.25" d="M348.869 360.067H447.193V255.414H445.693V358.567H348.869V360.067Z" fill="#D5DBDA"/>
</g>
</g>
</g>
<g opacity="0.25">
<g opacity="0.25">
<g opacity="0.25">
<path opacity="0.25" d="M437.112 311.996L438.104 310.872L412.382 287.784L388.556 292.966L362.745 264.256L361.642 265.271L388.027 294.62L411.94 289.416L437.112 311.996Z" fill="#D5DBDA"/>
</g>
</g>
</g>
<g opacity="0.25">
<g opacity="0.25">
<g opacity="0.25">
<path opacity="0.25" d="M359.612 269.504L366.892 262.536L357.494 260.023L359.612 269.504Z" fill="#D5DBDA"/>
</g>
</g>
</g>
<g opacity="0.25">
<g opacity="0.25">
<g opacity="0.25">
<g opacity="0.25">
<path opacity="0.25" d="M339.559 322.955H332.014V330.497H339.559V322.955Z" fill="#B1AFFD"/>
</g>
</g>
</g>
<g opacity="0.25">
<g opacity="0.25">
<g opacity="0.25">
<path opacity="0.25" d="M339.559 336.164H332.014V343.705H339.559V336.164Z" fill="#FCA70C"/>
</g>
</g>
</g>
<g opacity="0.25">
<g opacity="0.25">
<g opacity="0.25">
<path opacity="0.25" d="M329.919 339.427H306.005V343.705H329.919V339.427Z" fill="#EFEFEF"/>
</g>
</g>
</g>
<g opacity="0.25">
<g opacity="0.25">
<g opacity="0.25">
<path opacity="0.25" d="M329.919 326.219H306.005V330.497H329.919V326.219Z" fill="#EFEFEF"/>
</g>
</g>
</g>
</g>
<g opacity="0.25">
<g opacity="0.25">
<g opacity="0.25">
<g opacity="0.25">
<path opacity="0.25" d="M295.173 322.955H287.628V330.497H295.173V322.955Z" fill="#B1AFFD"/>
</g>
</g>
</g>
<g opacity="0.25">
<g opacity="0.25">
<g opacity="0.25">
<path opacity="0.25" d="M295.173 336.164H287.628V343.705H295.173V336.164Z" fill="#FCA70C"/>
</g>
</g>
</g>
<g opacity="0.25">
<g opacity="0.25">
<g opacity="0.25">
<path opacity="0.25" d="M285.554 339.427H261.64V343.705H285.554V339.427Z" fill="#EFEFEF"/>
</g>
</g>
</g>
<g opacity="0.25">
<g opacity="0.25">
<g opacity="0.25">
<path opacity="0.25" d="M285.554 326.219H261.64V330.497H285.554V326.219Z" fill="#EFEFEF"/>
</g>
</g>
</g>
</g>
<g opacity="0.25">
<g opacity="0.25">
<g opacity="0.25">
<g opacity="0.25">
<path opacity="0.25" d="M255.221 322.955H247.676V330.497H255.221V322.955Z" fill="#B1AFFD"/>
</g>
</g>
</g>
<g opacity="0.25">
<g opacity="0.25">
<g opacity="0.25">
<path opacity="0.25" d="M255.221 336.164H247.676V343.705H255.221V336.164Z" fill="#FCA70C"/>
</g>
</g>
</g>
<g opacity="0.25">
<g opacity="0.25">
<g opacity="0.25">
<path opacity="0.25" d="M245.58 339.427H229.851V343.705H245.58V339.427Z" fill="#EFEFEF"/>
</g>
</g>
</g>
<g opacity="0.25">
<g opacity="0.25">
<g opacity="0.25">
<path opacity="0.25" d="M245.58 326.219H229.851V330.497H245.58V326.219Z" fill="#EFEFEF"/>
</g>
</g>
</g>
</g>
<g opacity="0.25">
<g opacity="0.25">
<g opacity="0.25">
<g opacity="0.25">
<path opacity="0.25" d="M338.125 250.894H229.851V252.856H338.125V250.894Z" fill="#EFEFEF"/>
</g>
</g>
</g>
<g opacity="0.25">
<g opacity="0.25">
<g opacity="0.25">
<path opacity="0.25" d="M447.193 226.748H229.851V231.246H447.193V226.748Z" fill="#EFEFEF"/>
</g>
</g>
</g>
<g opacity="0.25">
<g opacity="0.25">
<g opacity="0.25">
<path opacity="0.25" d="M338.456 257.002H229.851V258.964H338.456V257.002Z" fill="#EFEFEF"/>
</g>
</g>
</g>
<g opacity="0.25">
<g opacity="0.25">
<g opacity="0.25">
<path opacity="0.25" d="M338.456 244.763H229.851V246.726H338.456V244.763Z" fill="#EFEFEF"/>
</g>
</g>
</g>
<g opacity="0.25">
<g opacity="0.25">
<g opacity="0.25">
<path opacity="0.25" d="M338.456 263.132H229.851V265.094H338.456V263.132Z" fill="#EFEFEF"/>
</g>
</g>
</g>
<g opacity="0.25">
<g opacity="0.25">
<g opacity="0.25">
<path opacity="0.25" d="M338.456 269.262H229.851V271.224H338.456V269.262Z" fill="#EFEFEF"/>
</g>
</g>
</g>
<g opacity="0.25">
<g opacity="0.25">
<g opacity="0.25">
<path opacity="0.25" d="M338.456 275.37H229.851V277.332H338.456V275.37Z" fill="#EFEFEF"/>
</g>
</g>
</g>
<g opacity="0.25">
<g opacity="0.25">
<g opacity="0.25">
<path opacity="0.25" d="M338.456 281.5H229.851V283.463H338.456V281.5Z" fill="#EFEFEF"/>
</g>
</g>
</g>
<g opacity="0.25">
<g opacity="0.25">
<g opacity="0.25">
<path opacity="0.25" d="M338.456 287.608H229.851V289.571H338.456V287.608Z" fill="#EFEFEF"/>
</g>
</g>
</g>
<g opacity="0.25">
<g opacity="0.25">
<g opacity="0.25">
<path opacity="0.25" d="M338.456 293.738H229.851V295.701H338.456V293.738Z" fill="#EFEFEF"/>
</g>
</g>
</g>
<g opacity="0.25">
<g opacity="0.25">
<g opacity="0.25">
<path opacity="0.25" d="M325.153 299.846H229.851V301.809H325.153V299.846Z" fill="#EFEFEF"/>
</g>
</g>
</g>
</g>
</g>
<path opacity="0.25" d="M222.725 201.103H452.863C458.974 201.103 463.916 206.042 463.916 212.15V221.809H211.673V212.15C211.673 206.064 216.637 201.103 222.725 201.103Z" fill="#7A7AE5"/>
<path opacity="0.25" d="M244.124 211.842C244.124 213.606 245.558 215.017 247.301 215.017C249.066 215.017 250.478 213.584 250.478 211.842C250.478 210.078 249.044 208.666 247.301 208.666C245.558 208.666 244.124 210.1 244.124 211.842Z" fill="#CFCFFF"/>
<path opacity="0.25" d="M234.329 215.017C236.084 215.017 237.506 213.595 237.506 211.842C237.506 210.088 236.084 208.666 234.329 208.666C232.575 208.666 231.153 210.088 231.153 211.842C231.153 213.595 232.575 215.017 234.329 215.017Z" fill="#CFCFFF"/>
<path opacity="0.25" d="M221.335 215.017C223.09 215.017 224.512 213.595 224.512 211.842C224.512 210.088 223.09 208.666 221.335 208.666C219.581 208.666 218.159 210.088 218.159 211.842C218.159 213.595 219.581 215.017 221.335 215.017Z" fill="#CFCFFF"/>
</g>
<path opacity="0.55" d="M289.746 408.071H519.884C525.994 408.071 530.936 403.132 530.936 397.024V249.659C530.936 243.551 525.994 238.611 519.884 238.611H289.746C283.635 238.611 278.693 243.551 278.693 249.659V397.024C278.693 403.132 283.635 408.071 289.746 408.071Z" fill="#C4C3FC"/>
<path d="M284.628 401.477H514.765C520.876 401.477 525.818 396.538 525.818 390.43V243.065C525.818 236.957 520.876 232.017 514.765 232.017H284.628C278.517 232.017 273.575 236.957 273.575 243.065V390.43C273.575 396.516 278.517 401.477 284.628 401.477Z" fill="white"/>
<path d="M501.838 355.789H490.852V383.352H501.838V355.789Z" fill="#FCA70C"/>
<path d="M477.064 331.599H466.077V383.374H477.064V331.599Z" fill="#B1AFFD"/>
<path d="M452.311 336.936H441.325V383.352H452.311V336.936Z" fill="#FCA70C"/>
<path d="M427.559 310.739H416.573V383.374H427.559V310.739Z" fill="#B1AFFD"/>
<g opacity="0.15">
<g opacity="0.15">
<g opacity="0.15">
<path opacity="0.26" d="M477.086 331.599H472.034V383.374H477.086V331.599Z" fill="black"/>
</g>
</g>
</g>
<g opacity="0.15">
<g opacity="0.15">
<g opacity="0.15">
<path opacity="0.26" d="M501.838 355.789H496.786V383.352H501.838V355.789Z" fill="black"/>
</g>
</g>
</g>
<g opacity="0.62">
<g opacity="0.62">
<g opacity="0.62">
<path opacity="0.26" d="M427.559 310.739H422.507V383.374H427.559V310.739Z" fill="black"/>
</g>
</g>
</g>
<g opacity="0.15">
<g opacity="0.15">
<g opacity="0.15">
<path opacity="0.26" d="M452.333 336.936H447.281V383.352H452.333V336.936Z" fill="black"/>
</g>
</g>
</g>
<path d="M410.749 390.96H509.096V295.657H507.595V389.46H410.749V390.96Z" fill="#D5DBDA"/>
<path d="M498.992 342.889L499.985 341.765L474.262 318.678L450.436 323.859L424.647 295.149L423.522 296.142L449.907 325.513L473.843 320.309L498.992 342.889Z" fill="#D5DBDA"/>
<path d="M421.493 300.397L428.773 293.407L419.375 290.894L421.493 300.397Z" fill="#D5DBDA"/>
<path d="M401.439 353.849H393.895V361.39H401.439V353.849Z" fill="#B1AFFD"/>
<path d="M401.439 367.057H393.895V374.598H401.439V367.057Z" fill="#FCA70C"/>
<path d="M391.821 370.32H367.907V374.598H391.821V370.32Z" fill="#EFEFEF"/>
<path d="M391.821 357.09H367.907V361.368H391.821V357.09Z" fill="#EFEFEF"/>
<path d="M357.075 353.849H349.53V361.39H357.075V353.849Z" fill="#B1AFFD"/>
<path d="M357.075 367.057H349.53V374.598H357.075V367.057Z" fill="#FCA70C"/>
<path d="M347.434 370.32H323.521V374.598H347.434V370.32Z" fill="#EFEFEF"/>
<path d="M347.434 357.09H323.521V361.368H347.434V357.09Z" fill="#EFEFEF"/>
<path d="M317.101 353.849H309.556V361.39H317.101V353.849Z" fill="#B1AFFD"/>
<path d="M317.101 367.057H309.556V374.598H317.101V367.057Z" fill="#FCA70C"/>
<path d="M307.483 370.32H291.753V374.598H307.483V370.32Z" fill="#EFEFEF"/>
<path d="M307.483 357.09H291.753V361.368H307.483V357.09Z" fill="#EFEFEF"/>
<path d="M400.027 281.787H291.753V283.749H400.027V281.787Z" fill="#EFEFEF"/>
<path d="M509.096 257.619H291.753V262.117H509.096V257.619Z" fill="#EFEFEF"/>
<path d="M400.358 287.895H291.753V289.857H400.358V287.895Z" fill="#EFEFEF"/>
<path d="M400.358 275.657H291.753V277.619H400.358V275.657Z" fill="#EFEFEF"/>
<path d="M400.358 294.025H291.753V295.987H400.358V294.025Z" fill="#EFEFEF"/>
<path d="M400.358 300.133H291.753V302.095H400.358V300.133Z" fill="#EFEFEF"/>
<path d="M400.358 306.263H291.753V308.226H400.358V306.263Z" fill="#EFEFEF"/>
<path d="M400.358 312.371H291.753V314.334H400.358V312.371Z" fill="#EFEFEF"/>
<path d="M400.358 318.501H291.753V320.464H400.358V318.501Z" fill="#EFEFEF"/>
<path d="M400.358 324.609H291.753V326.572H400.358V324.609Z" fill="#EFEFEF"/>
<path d="M387.056 330.739H291.753V332.702H387.056V330.739Z" fill="#EFEFEF"/>
<path d="M284.628 231.996H514.765C520.876 231.996 525.818 236.935 525.818 243.043V252.702H273.575V243.043C273.575 236.935 278.517 231.996 284.628 231.996Z" fill="#A4A4F7"/>
<path d="M306.004 242.735C306.004 244.499 307.438 245.91 309.181 245.91C310.946 245.91 312.358 244.477 312.358 242.735C312.358 240.993 310.924 239.559 309.181 239.559C307.438 239.559 306.004 240.971 306.004 242.735Z" fill="#CFCFFF"/>
<path d="M293.011 242.735C293.011 244.499 294.445 245.91 296.187 245.91C297.952 245.91 299.364 244.477 299.364 242.735C299.364 240.993 297.93 239.559 296.187 239.559C294.445 239.559 293.011 240.971 293.011 242.735Z" fill="#CFCFFF"/>
<path d="M280.039 242.735C280.039 244.499 281.473 245.91 283.216 245.91C284.98 245.91 286.392 244.477 286.392 242.735C286.392 240.993 284.958 239.559 283.216 239.559C281.451 239.559 280.039 240.971 280.039 242.735Z" fill="#CFCFFF"/>
<path opacity="0.35" d="M199.495 174.752H258.552C258.155 193.892 257.824 213.054 257.581 232.195C257.537 235.127 257.581 238.148 258.64 240.86C258.684 240.86 258.728 240.86 258.728 240.86C259.5 240.816 259.17 241.059 259.434 242.47C259.434 242.492 259.456 242.514 259.456 242.536C261.839 246.439 266.516 248.556 271.038 249.571C271.082 249.813 271.038 250.012 270.972 250.21C271.501 250.673 271.744 251.268 271.435 251.996C271.171 252.636 267.773 253.496 263.163 253.01C261.839 252.878 259.258 252.15 258.044 251.599C257.316 251.268 256.677 250.761 256.169 250.32C255.574 250.254 254.978 250.122 254.449 249.901L254.272 250.078L248.977 247.784C248.977 247.784 249.551 244.455 250.014 242.713C250.103 242.382 250.235 242.117 250.367 241.897C245.955 229.901 242.447 217.597 239.999 205.05C240.969 220.596 246.551 252.195 246.97 253.275C247.676 255.105 250.103 257.685 253.698 257.994C254.956 258.104 261.111 257.751 260.449 260.574C260.295 261.257 257.096 262.691 252.463 262.999C251.139 263.088 248.47 262.823 247.168 262.492C245.448 262.029 243.881 260.706 243.881 260.706L243.175 261.654L237.572 260.309C237.572 260.309 237.572 258.854 237.616 257.09C237.66 255.326 238.807 253.672 238.807 253.672L238.719 250.497L235.609 250.122C235.609 250.122 229.365 229.945 226.409 223.088C225.196 220.265 223.828 217.465 223.056 214.488C222.152 210.982 222.063 207.343 221.777 203.727C221.247 197.156 220.034 190.629 218.159 184.322C218.048 183.925 217.916 183.506 217.629 183.198C217.144 182.646 216.328 182.558 215.577 182.492C207.636 181.764 203.996 183.11 199.032 181.566C192.48 179.537 191.796 176.56 191.465 176.428C193.914 175.326 196.627 174.752 199.495 174.752Z" fill="#5851BC"/>
<g opacity="0.35">
<path opacity="0.35" d="M177.655 306.902V238.435C187.869 251.798 197.973 263.771 208.187 277.156C212.621 282.955 229.983 302.162 218.137 309.879C215.114 311.842 209.842 311.754 207.216 311.952C197.774 312.614 188.399 310.012 179.221 307.41C178.714 307.233 178.184 307.079 177.655 306.902Z" fill="#5851BC"/>
</g>
<path opacity="0.35" d="M177.655 379.229L195.877 450.034H205.496L205.275 351.467L213.57 328.071C213.614 327.939 213.592 327.829 213.614 327.718L213.702 327.52C214.188 326.153 211.96 324.19 210.437 324.19L200.841 323.441L200.929 323.11L196.274 322.757C196.716 321.5 197.355 319.67 197.598 319.03C198.348 316.891 197.091 314.995 194.774 314.797C192.458 314.598 189.965 316.186 189.193 318.347L187.869 322.117L183.435 321.765L183.325 322.095L177.633 321.654V379.229H177.655ZM191.024 318.523C191.443 317.31 192.855 316.428 194.157 316.539C195.458 316.649 196.164 317.707 195.745 318.92C195.326 320.133 193.914 321.015 192.612 320.905C191.311 320.794 190.605 319.736 191.024 318.523Z" fill="#5851BC"/>
<path opacity="0.35" d="M536.628 281.015C538.767 283.374 541.304 288.402 542.319 290.563C543.4 292.702 544.569 293.915 547.636 295.348C551.85 297.266 556.372 299.119 560.696 300.816V311.996C551.872 306.682 543.886 301.743 543.753 301.699C537.003 304.278 531.377 298.678 529.568 294.62C528.752 292.812 529.965 292.062 530.031 291.202C530.053 290.761 529.48 288.137 529.568 287.784C530.098 285.425 536.429 287.498 535.922 286.373C535.613 285.513 534.863 283.507 533.274 282.426C530.164 280.309 527.781 277.95 527.781 277.068C527.781 275.546 535.9 280.221 536.628 281.015Z" fill="#5851BC"/>
<path d="M61.3068 510.012H179.575C188.046 510.012 194.907 503.154 194.907 494.687V353.187C194.907 344.72 188.046 337.862 179.575 337.862H61.3068C52.8355 337.862 45.9746 344.72 45.9746 353.187V494.687C45.9746 503.132 52.8355 510.012 61.3068 510.012Z" fill="#A2A7F4"/>
<path d="M59.0786 391.225H177.214C179.376 391.225 181.119 389.483 181.119 387.322V359.78C181.119 357.619 179.376 355.877 177.214 355.877H59.0786C56.9166 355.877 55.1738 357.619 55.1738 359.78V387.322C55.1738 389.483 56.9166 391.225 59.0786 391.225Z" fill="#9090F4"/>
<path d="M152.638 426.219H177.192C179.354 426.219 181.096 424.477 181.096 422.316V407.696C181.096 405.535 179.354 403.793 177.192 403.793H152.638C150.476 403.793 148.733 405.535 148.733 407.696V422.316C148.733 424.455 150.476 426.219 152.638 426.219Z" fill="#9090F4"/>
<path d="M105.87 426.219H130.423C132.585 426.219 134.328 424.477 134.328 422.316V407.696C134.328 405.535 132.585 403.793 130.423 403.793H105.87C103.708 403.793 101.965 405.535 101.965 407.696V422.316C101.943 424.455 103.708 426.219 105.87 426.219Z" fill="#9090F4"/>
<path d="M59.0786 426.219H83.6322C85.7942 426.219 87.537 424.477 87.537 422.316V407.696C87.537 405.535 85.7942 403.793 83.6322 403.793H59.0786C56.9166 403.793 55.1738 405.535 55.1738 407.696V422.316C55.1738 424.455 56.9166 426.219 59.0786 426.219Z" fill="#9090F4"/>
<path d="M152.638 462.294H177.192C179.354 462.294 181.096 460.552 181.096 458.391V443.771C181.096 441.611 179.354 439.868 177.192 439.868H152.638C150.476 439.868 148.733 441.611 148.733 443.771V458.391C148.733 460.552 150.476 462.294 152.638 462.294Z" fill="#9090F4"/>
<path d="M105.87 462.294H130.423C132.585 462.294 134.328 460.552 134.328 458.391V443.771C134.328 441.611 132.585 439.868 130.423 439.868H105.87C103.708 439.868 101.965 441.611 101.965 443.771V458.391C101.943 460.552 103.708 462.294 105.87 462.294Z" fill="#9090F4"/>
<path d="M152.638 498.369H177.192C179.354 498.369 181.096 496.627 181.096 494.466V479.847C181.096 477.686 179.354 475.944 177.192 475.944H152.638C150.476 475.944 148.733 477.686 148.733 479.847V494.466C148.733 496.627 150.476 498.369 152.638 498.369Z" fill="#9090F4"/>
<path d="M105.87 498.369H130.423C132.585 498.369 134.328 496.627 134.328 494.466V479.847C134.328 477.686 132.585 475.944 130.423 475.944H105.87C103.708 475.944 101.965 477.686 101.965 479.847V494.466C101.943 496.627 103.708 498.369 105.87 498.369Z" fill="#9090F4"/>
<path d="M59.0786 498.369H83.6322C85.7942 498.369 87.537 496.627 87.537 494.466V443.75C87.537 441.589 85.7942 439.847 83.6322 439.847H59.0786C56.9166 439.847 55.1738 441.589 55.1738 443.75V494.466C55.1738 496.627 56.9166 498.369 59.0786 498.369Z" fill="#9090F4"/>
<g opacity="0.45">
<path opacity="0.45" d="M183.413 357.487C183.413 355.326 181.67 353.584 179.508 353.584H61.3728C59.2108 353.584 57.468 355.326 57.468 357.487V385.028C57.468 387.189 59.2108 388.931 61.3728 388.931H179.508" fill="#E2DEFF"/>
<path opacity="0.45" d="M154.933 423.926H179.486C181.648 423.926 183.391 422.184 183.391 420.023V405.403C183.391 403.242 181.648 401.5 179.486 401.5H154.933C152.771 401.5 151.028 403.242 151.028 405.403V420.023C151.028 422.184 152.771 423.926 154.933 423.926Z" fill="#E2DEFF"/>
<path opacity="0.45" d="M108.142 423.926H132.695C134.857 423.926 136.6 422.184 136.6 420.023V405.403C136.6 403.242 134.857 401.5 132.695 401.5H108.142C105.98 401.5 104.237 403.242 104.237 405.403V420.023C104.237 422.184 105.98 423.926 108.142 423.926Z" fill="#E2DEFF"/>
<path opacity="0.45" d="M61.373 423.926H85.9266C88.0885 423.926 89.8313 422.184 89.8313 420.023V405.403C89.8313 403.242 88.0885 401.5 85.9266 401.5H61.373C59.211 401.5 57.4682 403.242 57.4682 405.403V420.023C57.4462 422.184 59.211 423.926 61.373 423.926Z" fill="#E2DEFF"/>
<path opacity="0.45" d="M154.933 460.001H179.486C181.648 460.001 183.391 458.259 183.391 456.098V441.478C183.391 439.317 181.648 437.575 179.486 437.575H154.933C152.771 437.575 151.028 439.317 151.028 441.478V456.098C151.028 458.259 152.771 460.001 154.933 460.001Z" fill="#E2DEFF"/>
<path opacity="0.45" d="M108.142 460.001H132.695C134.857 460.001 136.6 458.259 136.6 456.098V441.478C136.6 439.317 134.857 437.575 132.695 437.575H108.142C105.98 437.575 104.237 439.317 104.237 441.478V456.098C104.237 458.259 105.98 460.001 108.142 460.001Z" fill="#E2DEFF"/>
<path opacity="0.45" d="M154.933 496.098H179.486C181.648 496.098 183.391 494.356 183.391 492.195V477.575C183.391 475.414 181.648 473.672 179.486 473.672H154.933C152.771 473.672 151.028 475.414 151.028 477.575V492.195C151.028 494.334 152.771 496.098 154.933 496.098Z" fill="#E2DEFF"/>
<path opacity="0.45" d="M108.142 496.098H132.695C134.857 496.098 136.6 494.356 136.6 492.195V477.575C136.6 475.414 134.857 473.672 132.695 473.672H108.142C105.98 473.672 104.237 475.414 104.237 477.575V492.195C104.237 494.334 105.98 496.098 108.142 496.098Z" fill="#E2DEFF"/>
</g>
<path d="M61.373 496.098H85.9266C88.0885 496.098 89.8313 494.356 89.8313 492.195V441.478C89.8313 439.317 88.0885 437.575 85.9266 437.575H61.373C59.211 437.575 57.4682 439.317 57.4682 441.478V492.195C57.4462 494.334 59.211 496.098 61.373 496.098Z" fill="#FCA70C"/>
<path d="M87.5591 494.466V443.749C87.5591 441.588 85.8163 439.846 83.6544 439.846H59.0787C58.5934 439.846 58.1301 439.935 57.7109 440.111C58.2625 438.634 59.6964 437.575 61.373 437.575H85.9267C88.0886 437.575 89.8314 439.317 89.8314 441.478V492.195C89.8314 493.871 88.7725 495.282 87.2944 495.855C87.4488 495.414 87.5591 494.951 87.5591 494.466Z" fill="#F9C110"/>
<path d="M528.355 416.142L536.143 496.737H459.68L467.07 416.01L528.355 416.142Z" fill="#FCA70C"/>
<path d="M512.162 425.932C510.574 425.932 509.294 424.83 509.294 423.507C509.294 422.162 510.596 421.081 512.162 421.081C513.751 421.081 515.03 422.184 515.03 423.507C515.03 424.852 513.729 425.932 512.162 425.932ZM512.162 422.007C511.103 422.007 510.221 422.669 510.221 423.507C510.221 424.323 511.081 425.006 512.162 425.006C513.221 425.006 514.104 424.345 514.104 423.507C514.104 422.691 513.243 422.029 512.162 422.007Z" fill="#5851BC"/>
<path d="M483.66 425.866C482.91 425.866 482.204 425.624 481.675 425.183C481.123 424.72 480.814 424.102 480.814 423.441C480.814 422.096 482.094 421.015 483.682 421.015C483.682 421.015 483.682 421.015 483.704 421.015C484.542 421.015 485.359 421.324 485.888 421.875C486.329 422.316 486.55 422.867 486.55 423.441H486.087H486.55C486.528 424.786 485.248 425.866 483.66 425.866ZM483.66 421.963C482.601 421.963 481.719 422.625 481.719 423.463C481.719 423.838 481.917 424.212 482.248 424.499C482.623 424.808 483.109 424.962 483.66 424.962C484.719 424.962 485.601 424.301 485.601 423.463C485.601 423.044 485.381 422.735 485.204 422.559C484.829 422.162 484.278 421.963 483.66 421.963Z" fill="#5851BC"/>
<path d="M498.749 441.125C498.485 441.125 498.22 441.125 497.933 441.103C492.705 440.927 488.712 439.251 486.064 436.098C481.696 430.894 482.689 423.617 482.733 423.308C482.799 422.801 483.285 422.426 483.77 422.537C484.277 422.603 484.63 423.088 484.564 423.573C484.564 423.639 483.66 430.365 487.498 434.929C489.793 437.641 493.322 439.119 497.999 439.273C502.544 439.405 505.919 438.237 508.169 435.723C512.251 431.181 511.236 423.727 511.236 423.639C511.17 423.132 511.523 422.669 512.03 422.603C512.515 422.537 513.001 422.889 513.067 423.397C513.111 423.727 514.214 431.776 509.559 436.958C507.066 439.736 503.426 441.125 498.749 441.125Z" fill="#5851BC"/>
<path d="M289.437 103.33C289.437 103.33 294.577 99.7135 294.753 98.192C294.93 96.6705 298.526 90.4963 299.673 89.2835C300.82 88.0487 306.843 85.9759 308.122 85.7775C309.402 85.6011 316.792 86.2185 315.866 87.2328C314.939 88.2472 310.174 87.8723 309.247 88.4236C308.321 88.9748 308.321 88.9748 308.321 88.9748C308.321 88.9748 309.247 90.2097 308.872 90.9814C308.497 91.7312 310.439 92.8999 309.711 94.1788C308.983 95.4577 309.997 95.3695 309.358 96.7146C308.277 98.9197 305.497 100.155 304.769 99.5592C304.217 100.86 302.1 103.55 300.136 103.352C298.151 103.176 293.364 107.674 293.364 107.674" fill="#FFB9B0"/>
<path d="M211.055 77.5526C210.879 80.9925 211.121 87.0123 210.129 87.8944C209.136 88.7764 205.959 88.6441 205.959 88.6441C205.959 88.6441 217.365 103.065 218.379 102.271C219.394 101.478 232.895 90.4963 229.851 89.923C226.829 89.3497 223.851 89.482 223.939 87.9164C224.027 86.3508 224.115 84.7852 224.203 83.2196" fill="#FFB9B0"/>
<path d="M198.039 154.532C198.039 154.532 220.299 157.068 225.417 157.156C230.535 157.266 230.292 154.598 230.292 154.598C230.557 148.953 231.506 135.678 232.564 131.18C233.557 126.968 233.998 125.425 234.859 121.434C236.778 112.547 236.69 110.871 238.719 99.912L225.417 89.2394C225.417 89.2394 224.049 93.3188 218.468 93.407C211.011 93.4952 208.695 88.2913 208.695 88.2913L190.561 100.331L188.862 129.592L191.024 153.694" fill="#FCA70C"/>
<path d="M210.813 74.4213C211.21 76.1633 211.739 77.8613 212.379 79.5371C213.548 82.5801 215.291 83.6827 218.512 83.7709C220.784 83.815 223.056 83.8811 225.328 83.9252C227.071 83.9693 229.233 84.0355 230.645 82.8006C232.035 81.5878 232.079 79.5371 232.388 77.8613C232.785 75.7223 233.116 73.5393 233.359 71.3783C233.844 67.1225 234.043 62.8447 233.954 58.5668C233.932 57.9715 233.932 57.3981 233.8 56.8028C233.756 56.5602 233.667 56.3177 233.513 56.1633C233.292 55.9428 232.984 55.8987 232.697 55.8546C228.439 55.1931 224.115 54.9064 219.813 55.0387C216.769 55.1269 213.548 55.4797 211.143 57.332C208.717 59.2063 207.57 62.2493 206.533 65.138C206.356 65.601 206.246 66.2185 206.643 66.5051" fill="#FFB9B0"/>
<path d="M260.714 233.87C260.714 233.87 259.986 238.303 259.39 239.802C258.794 241.324 253.831 239.912 253.5 238.942C253.169 237.972 255.066 230.761 255.066 230.761" fill="#ED9C80"/>
<path d="M251.779 240.199C251.36 241.831 250.809 244.962 250.809 244.962L255.772 247.123L256.589 246.351C256.589 246.351 257.824 247.851 259.346 248.556C260.471 249.085 262.92 249.747 264.155 249.879C268.479 250.342 271.678 249.526 271.943 248.931C273.024 246.417 267.266 245.756 266.119 245.447C262.832 244.587 261.023 241.809 260.67 240C260.427 238.677 260.736 238.457 260.008 238.501C260.008 238.501 259.368 238.457 258.773 239.074C257.846 240.023 256.478 240.441 255.243 239.89C254.537 239.581 253.875 239.096 253.478 238.435C253.478 238.435 252.198 238.567 251.779 240.199Z" fill="#38287C"/>
<path d="M238.785 176.053C246.551 177.575 256.28 177.685 264.111 176.649C263.008 179.78 260.317 183.815 259.302 188.247C255.927 202.845 254.757 222.47 253.897 234.62C253.897 234.62 255.53 237.729 260.714 235.37C268.479 216.186 282.047 177.31 281.914 168.887C281.76 158.148 254.934 155.568 235.3 152.922" fill="#453087"/>
<path d="M204.525 154.554C198.348 159.074 238.763 176.053 238.763 176.053C243.242 176.935 247.61 177.332 252.022 177.31C252.441 176.516 252.838 175.678 253.015 174.796C253.257 173.628 253.125 172.393 253.323 171.224C253.721 168.931 255.375 166.99 257.361 165.778C259.346 164.565 261.662 164.014 263.957 163.639C269.428 162.757 278.958 163.374 278.958 163.374C266.803 154.421 241.94 153.253 230.358 152.503C228.174 156.186 205.43 153.892 204.525 154.554Z" fill="#38287C"/>
<path d="M247.897 244.08C247.897 244.08 247.941 248.556 247.61 250.166C247.301 251.754 242.161 251.246 241.676 250.342C241.19 249.438 241.808 242.029 241.808 242.029" fill="#ED9C80"/>
<path d="M240.197 251.864C240.065 253.54 240.065 256.715 240.065 256.715L245.337 257.972L245.999 257.068C245.999 257.068 247.477 258.325 249.088 258.744C250.301 259.052 252.816 259.295 254.051 259.229C258.397 258.942 261.398 257.575 261.552 256.958C262.17 254.311 256.39 254.642 255.221 254.532C251.845 254.245 249.573 251.82 248.911 250.1C248.426 248.843 248.713 248.556 248.007 248.733C248.007 248.733 247.367 248.821 246.882 249.526C246.132 250.607 244.852 251.29 243.551 250.938C242.8 250.739 242.072 250.408 241.565 249.791C241.565 249.835 240.33 250.188 240.197 251.864Z" fill="#38287C"/>
<path d="M191.046 153.65C191.046 153.65 203.422 154.885 218.445 154.532C221.953 154.532 248.404 159.493 250.941 163.969C255.11 171.334 248.227 214.422 248.867 245.271C248.867 245.271 245.69 247.917 240.087 245.425C238.697 230.276 229.741 194.532 235.918 177.839C221.335 179.78 209.555 181.698 196.296 177.31C193.186 176.274 190.87 174.091 189.48 170.077C188.068 166.064 188.796 157.244 191.046 153.65Z" fill="#453087"/>
<path d="M225.417 89.2174C225.417 89.2174 228.593 89.3938 229.211 89.4379C231.858 89.6584 234.572 89.9892 237.065 90.9153C240.661 92.2604 243.22 95.5901 246.154 98.2141C248.978 100.728 263.626 114.686 266.361 115.193C269.097 115.7 293.077 99.2725 293.077 99.2725L298.923 105.116C298.923 105.116 272.914 129.151 265.148 129.195C261.376 129.217 240.617 118.28 233.976 114.047L225.417 89.2174Z" fill="#FCA70C"/>
<path opacity="0.25" d="M265.082 124.609C270.421 124.918 294.93 106.196 297.776 104.013L298.901 105.138C298.901 105.138 272.892 129.173 265.126 129.217C261.994 129.24 247.058 121.654 238.3 116.671L236.028 115.37L237.374 107.299C237.44 107.277 259.412 124.3 265.082 124.609Z" fill="#CE4A30"/>
<path d="M290.055 158.457H230.491L241.168 123.661C241.764 121.742 243.529 120.419 245.536 120.419H297.688C299.673 120.419 301.107 122.36 300.534 124.256L290.055 158.457Z" fill="#A4A4F7"/>
<path d="M290.805 158.457H232.145L242.823 123.661C243.418 121.742 245.183 120.419 247.191 120.419H299.342C301.328 120.419 302.762 122.36 302.188 124.256L291.952 157.597C291.798 158.126 291.334 158.457 290.805 158.457Z" fill="#7A74D1"/>
<g opacity="0.25">
<path opacity="0.25" d="M199.231 105.998C202.187 119.405 202.716 129.879 203.555 139.449C213.967 143.484 218.203 149.504 228.373 154.025C228.373 154.025 236.425 152.679 237.263 155.722C237.749 157.465 227.843 158.854 227.843 158.854C218.401 158.898 193.517 151.996 191.84 151.533C190.164 151.07 185.244 119.449 185.046 102.293C185.023 99.8459 185.112 97.2218 186.634 95.3034C187.428 94.3111 188.553 93.6275 189.7 93.0322C196.341 89.6364 201.26 88.7102 208.695 88.2472" fill="#CE4A30"/>
</g>
<path d="M226.983 156.097C228.108 154.686 230.138 154.488 231.947 154.532C233.27 154.554 234.616 154.664 235.918 154.84C236.513 154.929 237.219 155.061 237.263 155.722C237.329 156.384 234.351 155.722 232.785 156.163C235.851 156.428 238.918 156.516 241.984 156.406C242.337 156.384 242.712 156.384 243.043 156.516C243.374 156.649 243.661 156.957 243.639 157.332C243.617 157.619 243.418 157.839 243.22 158.038C242.359 158.81 241.19 159.118 240.043 159.317C235.344 160.133 230.402 160 226.056 158.082" fill="#FFB9B0"/>
<path d="M199.87 105.733C200.113 120.044 201.128 126.615 200.863 140.926C208.055 142.47 218.004 150.607 228.196 155.127C228.196 155.127 228.792 157.156 227.865 158.854C227.093 159.14 193.517 150.96 190.847 148.512C188.443 146.307 185.266 119.449 185.067 102.293C185.045 99.8459 185.134 97.2218 186.656 95.3034C187.45 94.3111 188.575 93.6275 189.722 93.0322C196.363 89.6364 201.282 88.7102 208.717 88.2472" fill="#FCA70C"/>
<path opacity="0.45" d="M260.537 140.044C260.317 143.087 263.935 145.579 268.59 145.579C273.244 145.579 277.215 143.109 277.414 140.044C277.635 137.001 274.017 134.51 269.362 134.51C264.707 134.532 260.736 137.001 260.537 140.044Z" stroke="#A4A4F7" stroke-miterlimit="10"/>
<path d="M269.079 143.09C272.037 142.975 274.382 141.51 274.316 139.819C274.25 138.127 271.798 136.85 268.84 136.965C265.882 137.081 263.537 138.545 263.603 140.237C263.669 141.928 266.121 143.206 269.079 143.09Z" fill="#A4A4F7"/>
<path d="M219.438 66.3287L219.394 67.0123C219.394 67.0123 221.269 66.7476 221.357 66.8359C221.556 67.0343 221.446 67.0564 221.931 69.3496C222.306 71.0475 223.431 71.9516 226.078 71.7973C228.086 71.687 228.373 69.6804 228.748 68.8204C229.123 67.9604 229.321 67.8502 229.63 67.8943C229.939 67.9384 230.071 68.0707 230.226 68.9968C230.38 69.923 230.513 72.1721 232.476 72.5911C234.02 72.9219 234.837 72.2383 235.344 71.0255C236.293 68.8645 236.293 68.8866 236.535 68.7322C236.778 68.5779 236.999 67.6297 237.021 67.0784C237.043 66.5271 235.918 66.2625 234.726 66.1082C233.535 65.9538 231.704 65.7333 230.932 66.0641C230.182 66.3948 230.138 66.7476 229.807 66.7256C229.454 66.6815 229.498 66.3287 228.836 65.7995C228.174 65.2923 224.997 64.8954 223.806 64.741C222.615 64.5867 221.424 64.6969 221.313 65.2261C221.269 65.4026 219.438 66.3287 219.438 66.3287ZM231.02 67.5415C231.263 66.88 231.77 66.9241 233.27 67.0123C234.77 67.1005 235.432 67.1005 235.631 67.4753C235.829 67.8502 235.807 68.9086 235.234 70.2758C234.572 71.8193 234.02 72.4588 232.807 72.3044C231.505 72.1501 230.932 71.0696 230.866 69.9009C230.799 68.7102 230.932 67.784 231.02 67.5415ZM222.593 65.8215C222.88 65.5128 224.865 65.8656 226.343 66.1302C227.821 66.4169 228.307 66.5051 228.395 67.2107C228.417 67.4753 228.307 68.4015 227.954 69.526C227.601 70.6506 227.159 71.5768 224.799 71.2901C223.144 71.0917 222.527 70.2978 222.284 68.622C222.063 67.1666 222.284 66.1302 222.593 65.8215Z" fill="#483A99"/>
<path d="M205.363 61.6098C205.496 60.397 205.716 59.2063 206.025 58.0817C206.819 54.9946 208.717 52.3926 211.518 50.8711C215.114 48.9306 220.034 48.5337 223.96 49.6363C226.233 50.2757 227.093 51.4665 228.262 51.4444C229.167 51.4224 230.292 50.805 231.439 50.386C240.352 47.1886 238.852 55.8987 237.903 58.3022C237.484 59.3607 235.454 60.1324 235.189 60.5734C234.925 61.0145 234.947 63.1754 234.77 64.1236C234.594 65.0718 233.667 65.4246 233.667 65.4246C233.667 65.4246 233.623 62.6242 233.579 62.2493C233.469 61.257 233.138 60.2206 232.255 59.6253C231.351 59.0078 230.115 58.9196 229.057 58.7212C227.954 58.5227 222.835 59.515 222.504 59.8017C220.85 61.235 220.409 64.4764 219.945 66.3948C219.725 67.2989 219.504 67.8943 219.129 67.8722C218.842 65.2482 217.938 65.16 216.372 66.0641C215.533 66.5492 215.048 68.203 215.026 69.6363C214.982 71.3122 215.93 73.1644 217.673 73.5172C218.313 73.6495 216.416 77.2438 215.533 78.1479C215.246 78.4346 214.96 78.7433 214.607 78.9638C214.276 79.1622 213.901 79.2504 213.526 79.3607C213.107 79.4709 212.687 79.5812 212.246 79.7135C211.673 79.8679 211.077 80.0222 210.503 79.8679C209.555 79.6033 209.069 78.611 208.65 77.7289C207.944 76.2956 207.15 74.8844 206.577 73.3849C205.275 69.8348 204.922 65.5569 205.363 61.6098Z" fill="#483A99"/>
<path d="M463.673 125.469H320.057L337.265 112.746V34.2228C337.265 29.0409 341.456 24.8512 346.641 24.8512H463.673C468.857 24.8512 473.049 29.0409 473.049 34.2228V116.097C473.049 121.279 468.835 125.469 463.673 125.469Z" fill="#D5D2FF"/>
<g opacity="0.45">
<path opacity="0.45" d="M460.562 39.4047H394.931V45.6892H460.562V39.4047Z" fill="white"/>
<path opacity="0.45" d="M460.562 48.7763H394.931V55.0608H460.562V48.7763Z" fill="white"/>
<path opacity="0.45" d="M460.562 58.1479H394.931V64.4323H460.562V58.1479Z" fill="white"/>
<path opacity="0.45" d="M460.562 67.2989H394.931V73.5834H460.562V67.2989Z" fill="white"/>
<path opacity="0.45" d="M460.562 76.4279H394.931V82.7124H460.562V76.4279Z" fill="white"/>
<path opacity="0.45" d="M460.562 93.0322H394.931V99.3166H460.562V93.0322Z" fill="white"/>
<path opacity="0.45" d="M460.562 102.933H348.538V109.217H460.562V102.933Z" fill="white"/>
</g>
<path d="M380.26 87.5856H358.067C352.817 87.5856 348.559 83.3298 348.559 78.0817V48.9086C348.559 43.6605 352.817 39.4047 358.067 39.4047H380.26C385.511 39.4047 389.768 43.6605 389.768 48.9086V78.0817C389.768 83.3298 385.511 87.5856 380.26 87.5856Z" fill="#C4C4F7"/>
<path opacity="0.45" d="M389.769 93.5834H348.538V98.7654H389.769V93.5834Z" fill="white"/>
<path d="M373.224 70.6727H358.266C357.428 70.6727 356.678 70.0994 356.457 69.3055L353.59 58.6771C353.259 57.4863 354.163 56.3177 355.399 56.3177H376.114C377.349 56.3177 378.231 57.4863 377.923 58.6771L375.055 69.3055C374.812 70.0994 374.062 70.6727 373.224 70.6727Z" fill="white"/>
<path d="M375.871 73.0542H357.847C357.649 73.0542 357.472 72.8778 357.472 72.6793C357.472 72.4809 357.649 72.3045 357.847 72.3045H375.584L381.85 50.4522C381.894 50.2978 382.048 50.1876 382.203 50.1876H386.129C386.328 50.1876 386.504 50.364 386.504 50.5624C386.504 50.7609 386.328 50.9373 386.129 50.9373H382.489L376.224 72.7896C376.18 72.9439 376.026 73.0542 375.871 73.0542Z" fill="white"/>
<path d="M360.605 75.9869C360.605 77.1997 359.634 78.17 358.421 78.17C357.208 78.17 356.237 77.1997 356.237 75.9869C356.237 74.7742 357.208 73.8039 358.421 73.8039C359.634 73.8039 360.605 74.7962 360.605 75.9869Z" fill="white"/>
<path d="M376.445 75.9869C376.445 77.1997 375.474 78.17 374.261 78.17C373.047 78.17 372.077 77.1997 372.077 75.9869C372.077 74.7742 373.047 73.8039 374.261 73.8039C375.474 73.8039 376.445 74.7962 376.445 75.9869Z" fill="white"/>
<g opacity="0.3">
<g opacity="0.3">
<g opacity="0.3">
<path opacity="0.3" d="M608.722 163.264L601.001 167.167L604.862 157.685" fill="#3939D3"/>
</g>
<path opacity="0.3" d="M632.702 151.158C632.702 159.67 625.4 166.549 616.377 166.549C607.355 166.549 600.052 159.648 600.052 151.158C600.052 142.646 607.355 135.767 616.377 135.767C625.4 135.767 632.702 142.668 632.702 151.158Z" fill="#3939D3"/>
</g>
<path opacity="0.3" d="M620.37 146.108V157.112C620.37 157.994 619.4 158.545 618.65 158.104L609.119 152.591C608.347 152.15 608.347 151.048 609.119 150.585L618.65 145.072C619.4 144.653 620.37 145.226 620.37 146.108Z" fill="#FEFEFE"/>
</g>
<g opacity="0.3">
<g opacity="0.3">
<g opacity="0.3">
<path opacity="0.3" d="M74.4331 280.375L82.1544 284.256L78.2937 274.774" fill="#3939D3"/>
</g>
<path opacity="0.3" d="M50.4529 268.247C50.4529 276.759 57.755 283.639 66.7778 283.639C75.8007 283.639 83.1028 276.737 83.1028 268.247C83.1028 259.736 75.8007 252.856 66.7778 252.856C57.7771 252.856 50.4529 259.758 50.4529 268.247Z" fill="#3939D3"/>
</g>
<g opacity="0.3">
<g opacity="0.3">
<g opacity="0.3">
<path opacity="0.3" d="M69.712 275.634C66.1602 275.701 62.5422 275.745 59.2772 275.524C58.2404 275.458 57.3359 273.915 58.5933 273.407C58.0639 273.143 57.5344 272.9 57.2917 272.349C57.0711 271.82 57.3359 271.092 57.9315 270.96C56.6961 271.246 56.2108 269.394 57.1814 268.799C56.674 268.38 56.2549 267.851 56.1446 267.233C56.0343 266.616 56.299 265.91 56.8947 265.601C57.2697 265.403 57.733 265.403 58.1742 265.403C59.6523 265.403 61.1303 265.381 62.6084 265.381C62.2113 263.198 62.0789 260.816 63.2702 258.898C63.6232 258.325 64.5718 257.619 65.3219 258.082C66.0278 258.501 65.8293 259.537 65.8072 260.199C65.6528 262.911 67.3073 265.645 69.8443 266.924C69.8443 266.902 69.6678 272.68 69.712 275.634Z" fill="#FEFEFE"/>
</g>
</g>
<path opacity="0.3" d="M70.9912 275.617L76.374 275.617L76.374 266.885L70.9912 266.885L70.9912 275.617Z" fill="#FEFEFE"/>
</g>
</g>
<g opacity="0.3">
<g opacity="0.3">
<g opacity="0.3">
<path opacity="0.3" d="M321.513 146.726L315.866 140.64L323.587 142.161" fill="#3939D3"/>
</g>
<path opacity="0.3" d="M342.383 148.137C342.383 154.311 337.088 159.295 330.536 159.295C323.984 159.295 318.689 154.289 318.689 148.137C318.689 141.963 323.984 136.979 330.536 136.979C337.088 136.979 342.383 141.963 342.383 148.137Z" fill="#3939D3"/>
</g>
<g opacity="0.3">
<g opacity="0.3">
<g opacity="0.3">
<path opacity="0.3" d="M332.808 153.495C330.47 153.539 328.109 153.561 325.969 153.407C325.286 153.363 324.712 152.238 325.528 151.886C325.175 151.709 324.822 151.511 324.668 151.114C324.513 150.739 324.69 150.21 325.087 150.099C324.271 150.298 323.962 148.975 324.58 148.534C324.249 148.247 323.962 147.85 323.896 147.387C323.83 146.946 324.006 146.417 324.381 146.197C324.624 146.064 324.933 146.042 325.219 146.042C326.19 146.042 327.161 146.02 328.131 146.02C327.867 144.432 327.8 142.712 328.551 141.323C328.793 140.904 329.411 140.397 329.896 140.728C330.36 141.037 330.227 141.786 330.205 142.249C330.117 144.212 331.176 146.197 332.852 147.123C332.897 147.145 332.786 151.356 332.808 153.495Z" fill="#FEFEFE"/>
</g>
</g>
<path opacity="0.3" d="M333.656 153.486L337.186 153.486L337.186 147.157L333.656 147.157L333.656 153.486Z" fill="#FEFEFE"/>
</g>
</g>
<g opacity="0.3">
<path opacity="0.3" d="M266.383 65.0939C264.001 62.117 262.567 58.3243 262.567 54.2228C262.567 44.5867 270.398 36.7586 280.039 36.7586C289.68 36.7586 297.511 44.5867 297.511 54.2228C297.511 63.859 289.68 71.687 280.039 71.687C276.465 71.687 273.134 70.6065 270.354 68.7543L263.582 72.3486L266.383 65.0939Z" fill="#3939D3"/>
<path opacity="0.3" d="M287.407 49.4378C285.731 47.784 283.017 47.8281 281.385 49.504L280.304 50.6065L279.179 49.504C277.502 47.8502 274.811 47.8722 273.156 49.5481C271.501 51.2239 271.523 53.9362 273.2 55.5679L277.348 59.6473L277.37 59.6694C278.031 60.3088 278.848 60.7058 279.708 60.8381C281.032 61.0365 282.399 60.6175 283.414 59.6032L287.495 55.4356C289.106 53.8039 289.084 51.0916 287.407 49.4378Z" fill="white"/>
</g>
</g>
<defs>
<clipPath id="clip0">
<rect width="756" height="583" fill="white"/>
</clipPath>
</defs>
</svg>
